<svg width="325" height="240" viewBox="0 0 325 240" fill="none" xmlns="http://www.w3.org/2000/svg">
<path d="M292.435 223.584H270.907V223.747H292.435V223.584Z" fill="#EBEBEB"/>
<path d="M215.293 225.354H209.645V225.517H215.293V225.354Z" fill="#EBEBEB"/>
<path d="M270.257 217.543H257.784V217.706H270.257V217.543Z" fill="#EBEBEB"/>
<path d="M62.1725 218.637H34.099V218.8H62.1725V218.637Z" fill="#EBEBEB"/>
<path d="M72.0785 218.637H67.964V218.8H72.0785V218.637Z" fill="#EBEBEB"/>
<path d="M146.347 221.384H85.4555V221.547H146.347V221.384Z" fill="#EBEBEB"/>
<path d="M154.05 184.08H28.548C27.5636 184.08 26.6196 183.688 25.9236 182.991C25.2275 182.294 24.8365 181.349 24.8365 180.363V3.6842C24.8451 2.70411 25.2399 1.76708 25.935 1.07708C26.6301 0.387077 27.5692 -3.75749e-05 28.548 2.73551e-09H154.05C155.034 2.73552e-09 155.978 0.391584 156.674 1.08861C157.37 1.78563 157.761 2.731 157.761 3.71674V180.363C157.761 181.349 157.37 182.294 156.674 182.991C155.978 183.688 155.034 184.08 154.05 184.08ZM28.548 0.130184C27.6073 0.131905 26.7056 0.506896 26.0404 1.17303C25.3752 1.83916 25.0007 2.74214 24.999 3.6842V180.363C25.0007 181.305 25.3752 182.208 26.0404 182.874C26.7056 183.54 27.6073 183.915 28.548 183.917H154.05C154.991 183.915 155.892 183.54 156.558 182.874C157.223 182.208 157.597 181.305 157.599 180.363V3.6842C157.597 2.74214 157.223 1.83916 156.558 1.17303C155.892 0.506896 154.991 0.131905 154.05 0.130184H28.548Z" fill="#EBEBEB"/>
<path d="M294.651 184.08H169.136C168.153 184.078 167.21 183.686 166.514 182.989C165.818 182.292 165.427 181.348 165.425 180.363V3.6842C165.435 2.70464 165.831 1.76859 166.525 1.07896C167.22 0.38932 168.158 0.00165873 169.136 0H294.651C295.628 0.0033877 296.564 0.392015 297.256 1.08165C297.948 1.77128 298.341 2.70636 298.35 3.6842V180.363C298.35 181.346 297.961 182.29 297.268 182.986C296.574 183.683 295.634 184.076 294.651 184.08ZM169.136 0.130184C168.196 0.131905 167.294 0.506896 166.629 1.17303C165.964 1.83916 165.589 2.74214 165.587 3.6842V180.363C165.589 181.305 165.964 182.208 166.629 182.874C167.294 183.54 168.196 183.915 169.136 183.917H294.651C295.592 183.915 296.494 183.54 297.159 182.874C297.824 182.208 298.199 181.305 298.2 180.363V3.6842C298.199 2.74214 297.824 1.83916 297.159 1.17303C296.494 0.506896 295.592 0.131905 294.651 0.130184H169.136Z" fill="#EBEBEB"/>
<path d="M325 213.111H0V213.273H325V213.111Z" fill="#EBEBEB"/>
<path d="M164.43 153.831H108.264V206.237H164.43V153.831Z" fill="#E6E6E6"/>
<path d="M117.201 207.884H110.032V212.466H117.201V207.884Z" fill="#E0E0E0"/>
<path d="M278.479 153.831H164.43V205.729H278.479V153.831Z" fill="#E6E6E6"/>
<path d="M287.183 149.972H280.014V212.466H287.183V149.972Z" fill="#E6E6E6"/>
<path d="M219.427 157.965H169.988V203.308H219.427V157.965Z" fill="#F5F5F5"/>
<path d="M178.334 203.308H191.536L196.293 157.965H183.098L178.334 203.308Z" fill="#FAFAFA"/>
<path d="M194.916 203.308H197.542L202.3 157.965H199.674L194.916 203.308Z" fill="#FAFAFA"/>
<path d="M163.053 157.965H113.614V203.308H163.053V157.965Z" fill="#F5F5F5"/>
<path d="M276.341 157.965H226.902V203.308H276.341V157.965Z" fill="#F5F5F5"/>
<path d="M278.2 149.972H106.223V212.46H110.045V208.945H276.25V212.447H280.079V149.958L278.2 149.972ZM110.045 155.628H162.585V177.336H110.045V155.628ZM110.045 203.308V180.565H162.585V203.308H110.045ZM219.427 203.308H166.4V155.628H219.421L219.427 203.308ZM276.276 203.308H223.256V180.565H276.25L276.276 203.308ZM276.276 177.336H223.256V155.628H276.25L276.276 177.336Z" fill="#F0F0F0"/>
<path d="M139.146 163.341C139.146 163.797 139.01 164.243 138.757 164.622C138.504 165.001 138.144 165.297 137.724 165.471C137.303 165.645 136.84 165.69 136.393 165.601C135.947 165.511 135.537 165.291 135.215 164.968C134.894 164.646 134.675 164.234 134.587 163.787C134.499 163.34 134.545 162.876 134.721 162.455C134.896 162.034 135.192 161.675 135.571 161.422C135.95 161.17 136.396 161.036 136.851 161.037C137.153 161.037 137.452 161.097 137.731 161.213C138.009 161.329 138.263 161.498 138.476 161.712C138.689 161.926 138.858 162.181 138.973 162.46C139.088 162.74 139.146 163.039 139.146 163.341Z" fill="#EBEBEB"/>
<path d="M136.851 165.639C136.412 165.638 135.982 165.512 135.612 165.274C135.242 165.037 134.948 164.698 134.765 164.298C134.622 164.61 134.551 164.95 134.557 165.294C134.563 165.637 134.645 165.974 134.799 166.281C134.952 166.588 135.172 166.857 135.442 167.068C135.713 167.279 136.027 167.426 136.362 167.499C136.697 167.572 137.044 167.569 137.378 167.491C137.711 167.412 138.023 167.259 138.29 167.044C138.557 166.829 138.772 166.556 138.92 166.247C139.068 165.937 139.145 165.598 139.146 165.255C139.146 164.924 139.073 164.597 138.931 164.298C138.748 164.697 138.456 165.036 138.087 165.273C137.718 165.511 137.289 165.638 136.851 165.639Z" fill="#E0E0E0"/>
<path d="M136.851 192.366C138.118 192.366 139.146 191.337 139.146 190.068C139.146 188.799 138.118 187.77 136.851 187.77C135.584 187.77 134.557 188.799 134.557 190.068C134.557 191.337 135.584 192.366 136.851 192.366Z" fill="#EBEBEB"/>
<path d="M136.851 192.366C136.412 192.365 135.982 192.238 135.612 192.001C135.242 191.763 134.948 191.425 134.765 191.025C134.622 191.337 134.551 191.677 134.557 192.02C134.563 192.364 134.645 192.701 134.799 193.008C134.952 193.315 135.172 193.584 135.442 193.795C135.713 194.005 136.027 194.153 136.362 194.226C136.697 194.299 137.044 194.296 137.378 194.217C137.711 194.138 138.023 193.986 138.29 193.771C138.557 193.555 138.772 193.283 138.92 192.973C139.068 192.664 139.145 192.325 139.146 191.982C139.146 191.651 139.073 191.324 138.931 191.025C138.748 191.424 138.456 191.762 138.087 192C137.718 192.238 137.289 192.365 136.851 192.366Z" fill="#E0E0E0"/>
<path d="M255.041 163.341C255.041 163.797 254.906 164.243 254.653 164.622C254.4 165 254.041 165.296 253.62 165.47C253.2 165.645 252.737 165.69 252.291 165.601C251.844 165.512 251.434 165.293 251.112 164.971C250.791 164.648 250.572 164.238 250.483 163.791C250.394 163.344 250.44 162.881 250.614 162.46C250.788 162.039 251.083 161.679 251.461 161.425C251.84 161.172 252.284 161.037 252.74 161.037C253.042 161.036 253.342 161.095 253.621 161.211C253.901 161.326 254.155 161.496 254.368 161.71C254.582 161.924 254.752 162.179 254.867 162.459C254.982 162.739 255.041 163.039 255.041 163.341Z" fill="#EBEBEB"/>
<path d="M252.739 165.639C252.301 165.638 251.872 165.511 251.504 165.273C251.135 165.036 250.842 164.697 250.66 164.298C250.518 164.597 250.444 164.924 250.445 165.255C250.441 165.602 250.515 165.945 250.661 166.259C250.808 166.573 251.023 166.85 251.292 167.069C251.56 167.288 251.874 167.444 252.211 167.524C252.547 167.605 252.898 167.608 253.236 167.535C253.574 167.461 253.892 167.311 254.164 167.098C254.437 166.884 254.658 166.611 254.811 166.3C254.963 165.989 255.044 165.648 255.047 165.301C255.049 164.954 254.974 164.612 254.826 164.298C254.642 164.698 254.348 165.037 253.978 165.274C253.609 165.512 253.179 165.638 252.739 165.639Z" fill="#E0E0E0"/>
<path d="M214.76 181.958C214.76 182.412 214.625 182.856 214.373 183.234C214.121 183.612 213.763 183.907 213.344 184.08C212.924 184.254 212.463 184.3 212.018 184.211C211.573 184.123 211.164 183.904 210.843 183.582C210.522 183.261 210.304 182.852 210.215 182.406C210.127 181.96 210.172 181.498 210.346 181.078C210.519 180.658 210.813 180.3 211.191 180.047C211.568 179.795 212.012 179.66 212.466 179.66C213.074 179.66 213.658 179.902 214.088 180.333C214.518 180.764 214.76 181.348 214.76 181.958Z" fill="#EBEBEB"/>
<path d="M212.466 184.262C212.027 184.261 211.598 184.134 211.23 183.896C210.861 183.658 210.568 183.32 210.386 182.921C210.244 183.22 210.17 183.547 210.171 183.878C210.171 184.221 210.248 184.56 210.396 184.869C210.544 185.179 210.76 185.451 211.027 185.667C211.294 185.882 211.605 186.035 211.939 186.113C212.273 186.192 212.62 186.195 212.954 186.122C213.289 186.049 213.604 185.901 213.874 185.691C214.145 185.48 214.365 185.211 214.518 184.904C214.671 184.597 214.754 184.26 214.76 183.916C214.766 183.573 214.695 183.233 214.552 182.921C214.368 183.321 214.074 183.659 213.705 183.897C213.335 184.134 212.905 184.261 212.466 184.262Z" fill="#E0E0E0"/>
<path d="M252.74 192.366C254.007 192.366 255.034 191.337 255.034 190.068C255.034 188.799 254.007 187.77 252.74 187.77C251.472 187.77 250.445 188.799 250.445 190.068C250.445 191.337 251.472 192.366 252.74 192.366Z" fill="#EBEBEB"/>
<path d="M252.739 192.366C252.301 192.365 251.872 192.238 251.504 192C251.135 191.762 250.842 191.424 250.66 191.025C250.518 191.324 250.444 191.651 250.445 191.982C250.441 192.328 250.515 192.672 250.661 192.986C250.808 193.3 251.023 193.577 251.292 193.796C251.56 194.015 251.874 194.17 252.211 194.251C252.547 194.332 252.898 194.335 253.236 194.261C253.574 194.187 253.892 194.038 254.164 193.824C254.437 193.611 254.658 193.338 254.811 193.027C254.963 192.716 255.044 192.374 255.047 192.028C255.049 191.681 254.974 191.338 254.826 191.025C254.642 191.425 254.348 191.763 253.978 192.001C253.609 192.238 253.179 192.365 252.739 192.366Z" fill="#E0E0E0"/>
<path opacity="0.1" d="M87.139 14.5935H43.225V80.1344H87.139V14.5935Z" fill="black"/>
<path d="M85.358 12.8101H41.444V78.351H85.358V12.8101Z" fill="#EBEBEB"/>
<path d="M83.2195 18.3494H45.3635V74.8491H83.2195V18.3494Z" fill="#F5F5F5"/>
<path d="M73.723 39.8882C73.723 41.3931 73.2774 42.8643 72.4424 44.1156C71.6075 45.367 70.4208 46.3423 69.0323 46.9182C67.6439 47.4941 66.1161 47.6448 64.6421 47.3512C63.1681 47.0576 61.8142 46.3329 60.7516 45.2687C59.6889 44.2045 58.9652 42.8487 58.672 41.3727C58.3788 39.8966 58.5293 38.3666 59.1044 36.9762C59.6795 35.5858 60.6534 34.3974 61.903 33.5613C63.1526 32.7252 64.6217 32.2789 66.1245 32.2789C67.1226 32.2781 68.1111 32.4743 69.0333 32.8564C69.9556 33.2385 70.7936 33.799 71.4994 34.5057C72.2051 35.2125 72.7648 36.0516 73.1463 36.9752C73.5279 37.8988 73.7239 38.8887 73.723 39.8882Z" fill="#E0E0E0"/>
<path d="M57.4665 60.0081L63.7975 52.4249L66.1245 60.0081H57.4665Z" fill="#EBEBEB"/>
<path d="M52.117 26.7202C46.8065 35.3839 50.648 46.1436 56.667 53.2126C57.5965 54.2996 59.1565 52.7244 58.2335 51.6438C52.8385 45.3299 49.244 35.6052 54.0085 27.8333C54.7625 26.616 52.845 25.503 52.0975 26.7202H52.117Z" fill="#EBEBEB"/>
<path d="M78.351 26.1929L74.295 30.3522L78.351 33.8281L82.043 30.0138L78.351 26.1929Z" fill="#EBEBEB"/>
<path d="M85.358 12.8101L87.139 14.5936V80.1345H43.225L41.444 78.351H85.358V12.8101Z" fill="#E0E0E0"/>
<path d="M35.152 148.709C35.152 143.169 41.652 138.476 50.6545 136.875L41.769 126.239H73.1705L64.2785 136.875C73.2745 138.476 79.7875 143.169 79.7875 148.709C79.7875 154.814 71.89 199.441 61.477 209.244L64.727 213.15H50.18L53.43 209.244C43.0495 199.441 35.152 154.814 35.152 148.709Z" fill="#F0F0F0"/>
<path d="M69.498 194.468C65.754 191.747 63.1735 186.104 63.1735 179.562C63.1735 170.371 68.2695 162.912 74.5485 162.912C75.6057 162.928 76.6499 163.149 77.623 163.563C75.8225 172.929 72.995 184.861 69.498 194.468Z" fill="#E0E0E0"/>
<path d="M41.964 139.778C46.1435 142.239 49.114 148.24 49.114 155.218C49.114 163.771 44.707 170.84 39.039 171.751C36.6015 160.868 35.139 151.306 35.139 148.709C35.152 145.2 37.765 142.037 41.964 139.778Z" fill="#E6E6E6"/>
<path d="M268.723 87.8089C268.555 88.1995 268.312 88.5533 268.008 88.8504C267.847 89.019 267.665 89.1676 267.469 89.293C266.959 89.6326 266.358 89.8076 265.746 89.7942C265.316 89.7324 264.917 89.534 264.608 89.2281C264.299 88.9223 264.097 88.5252 264.03 88.0953C263.965 87.6903 264.02 87.2749 264.188 86.901C264.357 86.5271 264.632 86.2113 264.979 85.9928L265.317 86.5461C265.082 86.6964 264.896 86.9117 264.78 87.1658C264.665 87.4199 264.626 87.7021 264.667 87.9781C264.765 88.5184 265.252 89.1303 265.759 89.1498C266.265 89.1419 266.758 88.9862 267.177 88.7018C267.597 88.4173 267.924 88.0165 268.119 87.5485C268.303 87.1243 268.348 86.6526 268.247 86.2012C268.147 85.7497 267.906 85.3418 267.56 85.036C267.273 84.7294 266.918 84.4953 266.524 84.3527C266.129 84.2102 265.707 84.1632 265.291 84.2158C264.59 84.3683 263.929 84.6691 263.352 85.0979C262.776 85.5267 262.298 86.0737 261.95 86.7023C260.332 89.3646 260.442 92.4825 260.813 94.6305C261.073 96.0358 261.485 97.4087 262.041 98.7248C262.152 98.9982 262.269 99.2716 262.392 99.5384C262.847 100.573 263.354 101.576 263.848 102.565C265.194 105.254 266.578 108.02 266.988 111.196C267.027 111.483 267.059 111.782 267.079 112.082C267.098 112.381 267.111 112.648 267.118 112.934C267.118 113.123 267.118 113.318 267.118 113.507C267.15 120.511 263.783 126.884 258.245 130.314L258.109 129.624C263.198 126.369 266.403 120.251 266.461 113.735C266.461 113.663 266.461 113.585 266.461 113.507C266.461 113.292 266.461 113.071 266.461 112.856C266.461 112.641 266.461 112.368 266.422 112.127C266.422 111.984 266.422 111.841 266.383 111.698C266.33 111.142 266.243 110.59 266.123 110.044C265.59 107.506 264.453 105.234 263.263 102.884C262.574 101.504 261.872 100.105 261.313 98.6337C261.053 97.9827 260.819 97.3318 260.618 96.6223C260.441 96.0122 260.298 95.3929 260.189 94.7672C259.623 91.5126 260.046 88.6356 261.404 86.3899C261.807 85.6769 262.357 85.0587 263.019 84.577C263.681 84.0953 264.438 83.7612 265.239 83.5974C266.009 83.4915 266.79 83.6722 267.436 84.1052C267.632 84.2272 267.813 84.3713 267.976 84.5348C268.001 84.5523 268.025 84.5719 268.047 84.5934C268.477 84.994 268.773 85.5181 268.894 86.0938C269.015 86.6695 268.955 87.2686 268.723 87.8089Z" fill="#E6E6E6"/>
<path d="M266.363 111.704C265.239 109.478 263.042 107.395 261.475 107.05L261.612 106.399C263.38 106.783 265.72 109.003 266.942 111.398L266.363 111.704Z" fill="#E6E6E6"/>
<path d="M267.052 113.715H266.402C266.384 112.957 266.526 112.204 266.82 111.505C267.113 110.806 267.551 110.177 268.105 109.66L268.547 110.142C268.059 110.597 267.673 111.151 267.416 111.767C267.158 112.384 267.034 113.048 267.052 113.715Z" fill="#E6E6E6"/>
<path d="M261.3 98.6207C260.051 96.8397 258.662 95.1615 257.146 93.6021L257.621 93.153C259.153 94.7453 260.564 96.4512 261.839 98.2561L261.3 98.6207Z" fill="#E6E6E6"/>
<path d="M262.623 97.3017L261.749 99.3207L262.346 99.5799L263.22 97.5609L262.623 97.3017Z" fill="#E6E6E6"/>
<path d="M269.861 90.0871C268.886 89.9822 267.953 89.6379 267.143 89.0847L267.507 88.5444C268.229 89.04 269.062 89.3486 269.932 89.4427L269.861 90.0871Z" fill="#E6E6E6"/>
<path d="M267.975 82.3221L267.197 84.6973L267.815 84.9005L268.594 82.5253L267.975 82.3221Z" fill="#E6E6E6"/>
<path d="M265.603 92.3783C265.848 92.2493 266.127 92.2019 266.401 92.2428C266.674 92.2838 266.928 92.4111 267.124 92.6061C267.54 93.0943 267.371 93.8429 267.124 94.4417C266.533 95.9258 264.596 100.137 262.574 98.3472C260.65 96.7199 264.063 93.0813 265.603 92.3783Z" fill="#E6E6E6"/>
<path d="M258.797 92.9643C258.96 93.1872 259.048 93.4562 259.048 93.7323C259.048 94.0085 258.96 94.2775 258.797 94.5004C258.368 94.9821 257.608 94.9235 256.984 94.7738C255.43 94.4028 250.984 93.0944 252.434 90.8683C253.792 88.6942 257.881 91.5322 258.797 92.9643Z" fill="#E6E6E6"/>
<path d="M263.439 104.739C261.599 102.012 257.523 100.358 253.877 100.834C252.167 101.068 251.927 103.652 252.454 105.032C252.98 106.412 254.351 107.545 255.931 108.235C257.579 109.004 259.449 109.149 261.196 108.645C262.827 108.085 264.336 106.061 263.439 104.739Z" fill="#E6E6E6"/>
<path d="M275.334 104.609C273.384 104.342 271.33 104.225 269.549 105.039C267.768 105.852 266.39 107.877 266.949 109.764C267.152 110.439 267.585 111.02 268.174 111.406C268.762 111.791 269.468 111.957 270.166 111.873C271.616 111.724 272.857 110.786 273.91 109.777C274.65 109.155 275.211 108.346 275.535 107.434C275.789 106.503 276.289 104.739 275.334 104.609Z" fill="#E6E6E6"/>
<path d="M267.904 83.8252C267.547 83.1175 267.394 82.324 267.462 81.534C267.503 81.1407 267.649 80.7657 267.884 80.4484C268.12 80.1311 268.437 79.8833 268.801 79.7309C269.173 79.6001 269.581 79.6202 269.938 79.7868C270.295 79.9535 270.573 80.2535 270.712 80.6227C270.815 81.0649 270.81 81.5257 270.697 81.9655C270.584 82.4053 270.366 82.8112 270.062 83.1483C269.803 83.4543 269.463 83.6804 269.081 83.8003C268.699 83.9201 268.291 83.9288 267.904 83.8252Z" fill="#E6E6E6"/>
<path d="M275.411 91.8315C274.852 92.3306 274.166 92.666 273.429 92.8008C272.692 92.9356 271.932 92.8647 271.233 92.5958C270.533 92.3269 269.921 91.8704 269.464 91.2764C269.006 90.6823 268.721 89.9736 268.638 89.2278C269.202 88.785 269.869 88.4929 270.576 88.3791C271.283 88.2652 272.008 88.3333 272.681 88.5769C273.369 88.8525 273.978 89.2937 274.454 89.8615C274.93 90.4292 275.259 91.1059 275.411 91.8315Z" fill="#E6E6E6"/>
<path d="M267.8 148.735L269.191 150.401H263.003L264.401 148.735C261.508 146.007 259.077 136.966 257.745 130.314L257.608 129.624C257.139 127.454 256.813 125.256 256.633 123.043C256.633 120.687 259.396 118.695 263.211 118.018L259.441 113.507H272.74L268.97 118.018C272.786 118.669 275.548 120.687 275.548 123.043C275.548 125.627 272.201 144.562 267.8 148.735Z" fill="#F0F0F0"/>
<path d="M159.367 240C228.971 240 285.396 236.701 285.396 232.632C285.396 228.562 228.971 225.263 159.367 225.263C89.7634 225.263 33.3385 228.562 33.3385 232.632C33.3385 236.701 89.7634 240 159.367 240Z" fill="#F5F5F5"/>
<path d="M222.853 185.401H160.264C158.623 185.424 156.995 185.103 155.486 184.457C153.976 183.812 152.619 182.857 151.501 181.653C150.383 180.45 149.53 179.025 148.996 177.471C148.462 175.916 148.26 174.267 148.402 172.63L158.867 22.8212C159.148 19.3742 160.702 16.156 163.227 13.7955C165.751 11.435 169.063 10.1019 172.517 10.0567H235.105C236.746 10.0323 238.373 10.3529 239.883 10.9977C241.392 11.6426 242.75 12.5973 243.868 13.8002C244.986 15.0032 245.839 16.4276 246.373 17.9815C246.907 19.5353 247.11 21.1841 246.968 22.8212L236.503 172.63C236.221 176.078 234.667 179.297 232.143 181.658C229.619 184.02 226.306 185.354 222.853 185.401Z" fill="#407BFF"/>
<path d="M219.603 185.401H157.014C155.373 185.424 153.745 185.103 152.236 184.457C150.726 183.812 149.369 182.857 148.251 181.653C147.133 180.45 146.28 179.025 145.746 177.471C145.212 175.916 145.01 174.267 145.152 172.63L155.617 22.8212C155.898 19.3742 157.452 16.156 159.977 13.7955C162.501 11.435 165.813 10.1019 169.267 10.0567H231.855C233.496 10.0323 235.123 10.3529 236.633 10.9977C238.142 11.6426 239.5 12.5973 240.618 13.8002C241.736 15.0032 242.589 16.4276 243.123 17.9815C243.657 19.5353 243.86 21.1841 243.718 22.8212L233.253 172.63C232.971 176.078 231.417 179.297 228.893 181.658C226.369 184.02 223.056 185.354 219.603 185.401Z" fill="#263238"/>
<path d="M231.641 13.0182H215.391C214.864 13.0266 214.357 13.2143 213.952 13.5504C213.546 13.8864 213.267 14.3508 213.161 14.8669L213.064 15.3811C212.806 16.643 212.125 17.779 211.135 18.6005C210.144 19.4221 208.903 19.8801 207.617 19.8985H192.134C190.902 19.9185 189.711 19.4585 188.813 18.6155C187.914 17.7726 187.378 16.6127 187.317 15.3811V14.8669C187.29 14.3672 187.073 13.8969 186.71 13.5529C186.348 13.2089 185.867 13.0175 185.367 13.0182H169.117C166.458 13.0562 163.908 14.0847 161.965 15.903C160.022 17.7214 158.824 20.1993 158.607 22.8536L148.142 172.662C148.032 173.924 148.189 175.194 148.6 176.392C149.011 177.589 149.669 178.687 150.53 179.615C151.391 180.542 152.437 181.278 153.599 181.776C154.762 182.274 156.016 182.522 157.281 182.504H219.869C222.529 182.466 225.08 181.437 227.023 179.617C228.967 177.797 230.163 175.318 230.38 172.662L240.845 22.8536C240.954 21.5868 240.797 20.311 240.381 19.1093C239.966 17.9076 239.303 16.807 238.434 15.8791C237.566 14.9512 236.512 14.2169 235.342 13.724C234.171 13.2311 232.91 12.9906 231.641 13.0182Z" fill="#407BFF"/>
<path opacity="0.8" d="M240.78 22.8277L230.321 172.636C230.102 175.291 228.903 177.769 226.959 179.588C225.015 181.406 222.464 182.434 219.804 182.472H157.216C155.951 182.491 154.697 182.245 153.534 181.748C152.371 181.251 151.326 180.516 150.465 179.588C149.604 178.661 148.947 177.563 148.537 176.366C148.126 175.168 147.972 173.898 148.083 172.636L158.542 22.8277C158.765 20.178 159.965 17.7064 161.908 15.8935C163.851 14.0805 166.397 13.0557 169.052 13.0183H185.302C185.803 13.0177 186.284 13.21 186.648 13.5553C187.011 13.9007 187.227 14.3727 187.252 14.8735V15.3812C187.306 16.6186 187.839 17.7864 188.738 18.6369C189.637 19.4875 190.832 19.954 192.069 19.9376H207.532C208.823 19.9182 210.068 19.4549 211.059 18.6253C212.05 17.7958 212.725 16.6503 212.973 15.3812L213.077 14.8735C213.184 14.3442 213.473 13.8691 213.893 13.5304C214.313 13.1916 214.838 13.0105 215.378 13.0183H231.628C232.89 12.9995 234.143 13.2454 235.304 13.7404C236.466 14.2354 237.512 14.9684 238.374 15.8923C239.236 16.8163 239.895 17.9106 240.31 19.1051C240.724 20.2995 240.884 21.5676 240.78 22.8277Z" fill="white"/>
<path d="M231.576 154.632L230.321 172.636C230.102 175.291 228.903 177.769 226.959 179.588C225.015 181.406 222.464 182.434 219.804 182.472H157.216C155.951 182.491 154.697 182.245 153.534 181.748C152.371 181.251 151.326 180.516 150.465 179.588C149.604 178.661 148.947 177.563 148.537 176.366C148.126 175.168 147.972 173.898 148.083 172.636L149.338 154.632H231.576Z" fill="#263238"/>
<path opacity="0.5" d="M231.576 154.632L230.321 172.636C230.102 175.291 228.903 177.769 226.959 179.588C225.015 181.406 222.464 182.434 219.804 182.472H157.216C155.951 182.491 154.697 182.245 153.534 181.748C152.371 181.251 151.326 180.516 150.465 179.588C149.604 178.661 148.947 177.563 148.537 176.366C148.126 175.168 147.972 173.898 148.083 172.636L149.338 154.632H231.576Z" fill="white"/>
<g opacity="0.7">
<path d="M196.443 14.6456C196.418 14.9769 196.271 15.2871 196.031 15.5165C195.791 15.746 195.475 15.8786 195.143 15.8889C194.983 15.8923 194.824 15.8618 194.676 15.7994C194.529 15.7369 194.396 15.644 194.287 15.5266C194.177 15.4093 194.094 15.2701 194.042 15.1183C193.99 14.9665 193.971 14.8054 193.986 14.6456C194.011 14.3143 194.158 14.0042 194.398 13.7747C194.638 13.5452 194.954 13.4126 195.286 13.4024C195.446 13.3989 195.605 13.4294 195.753 13.4919C195.9 13.5543 196.033 13.6472 196.142 13.7646C196.252 13.882 196.335 14.0211 196.387 14.173C196.438 14.3248 196.458 14.4858 196.443 14.6456Z" fill="black"/>
<path d="M205.348 13.4023H201.084C200.747 13.4061 200.424 13.5356 200.177 13.7656C199.931 13.9955 199.779 14.3094 199.751 14.6456C199.738 14.8051 199.758 14.9658 199.81 15.1172C199.862 15.2685 199.945 15.4073 200.054 15.5244C200.163 15.6416 200.296 15.7345 200.443 15.7973C200.59 15.8601 200.749 15.8913 200.908 15.8889H205.172C205.504 15.8786 205.82 15.746 206.06 15.5165C206.3 15.287 206.447 14.9769 206.472 14.6456C206.487 14.4886 206.469 14.3303 206.419 14.1807C206.369 14.0312 206.289 13.8936 206.183 13.7767C206.077 13.6599 205.948 13.5662 205.805 13.5018C205.661 13.4374 205.505 13.4035 205.348 13.4023Z" fill="black"/>
</g>
<path d="M165.562 19.8465H166.875L166.966 18.5251H165.653L165.562 19.8465Z" fill="#407BFF"/>
<path d="M168.285 18.5252L168.194 19.8465H169.507L169.605 18.5252L169.696 17.2103H168.376L168.285 18.5252Z" fill="#407BFF"/>
<path d="M171.1 15.8889L171.009 17.2103L170.918 18.5251L170.827 19.8465H172.14L172.237 18.5251L172.328 17.2103L172.419 15.8889H171.1Z" fill="#407BFF"/>
<path d="M227.695 15.98L227.63 16.9238H226.98L226.85 18.8766H227.5L227.435 19.8464H233.226L233.493 15.98H227.695ZM230.1 18.8766H228.15L228.286 16.9238H230.236L230.1 18.8766Z" fill="#407BFF"/>
<path d="M169.293 90.6859H168.851C168.78 90.6871 168.71 90.6735 168.646 90.6459C168.581 90.6183 168.523 90.5774 168.475 90.5258C168.427 90.4742 168.391 90.4131 168.368 90.3465C168.346 90.2799 168.337 90.2092 168.344 90.1391L168.994 80.8115C169.069 79.9202 169.473 79.0889 170.126 78.479C170.78 77.8691 171.636 77.5242 172.53 77.5113H181.838C181.908 77.5101 181.978 77.5237 182.042 77.5513C182.107 77.5789 182.165 77.6198 182.213 77.6714C182.261 77.723 182.297 77.7841 182.32 77.8507C182.343 77.9173 182.351 77.988 182.345 78.0581V78.4942C182.335 78.6427 182.269 78.7819 182.16 78.8834C182.051 78.985 181.908 79.0413 181.76 79.041H172.419C171.942 79.0532 171.486 79.2402 171.137 79.5665C170.789 79.8928 170.572 80.3357 170.528 80.8115L169.878 90.1391C169.865 90.2865 169.798 90.424 169.69 90.5249C169.582 90.6259 169.44 90.6832 169.293 90.6859Z" fill="#407BFF"/>
<path d="M204.601 129.181L204.633 128.739C204.644 128.592 204.71 128.454 204.817 128.353C204.924 128.252 205.064 128.195 205.212 128.192H214.5C214.978 128.181 215.436 127.995 215.786 127.668C216.136 127.342 216.354 126.898 216.398 126.421L217.048 117.094C217.059 116.946 217.126 116.807 217.234 116.706C217.342 116.605 217.485 116.548 217.633 116.547H218.069C218.139 116.546 218.209 116.559 218.274 116.587C218.339 116.614 218.398 116.655 218.446 116.707C218.494 116.758 218.531 116.819 218.555 116.886C218.578 116.952 218.587 117.023 218.582 117.094L217.932 126.421C217.859 127.313 217.458 128.146 216.805 128.757C216.153 129.369 215.296 129.715 214.403 129.728H205.108C205.038 129.728 204.968 129.714 204.904 129.686C204.84 129.658 204.782 129.617 204.734 129.566C204.687 129.514 204.65 129.454 204.627 129.387C204.604 129.321 204.595 129.251 204.601 129.181Z" fill="#407BFF"/>
<path d="M219.902 90.686H219.46C219.389 90.6872 219.32 90.6735 219.255 90.646C219.19 90.6184 219.132 90.5775 219.084 90.5259C219.036 90.4743 219 90.4132 218.977 90.3466C218.955 90.28 218.946 90.2093 218.953 90.1392L219.603 80.8831C219.638 80.5136 219.556 80.1423 219.369 79.8221C219.221 79.5816 219.013 79.3836 218.766 79.2478C218.518 79.112 218.24 79.043 217.958 79.0476H208.65C208.58 79.0478 208.511 79.0335 208.447 79.0055C208.382 78.9776 208.325 78.9367 208.277 78.8853C208.229 78.8339 208.193 78.7733 208.17 78.7071C208.147 78.6409 208.138 78.5707 208.143 78.5008L208.176 78.0582C208.187 77.9102 208.253 77.7719 208.362 77.6707C208.47 77.5694 208.612 77.5126 208.761 77.5114H217.945C218.742 77.4903 219.52 77.7637 220.129 78.2795C220.484 78.5939 220.761 78.9873 220.937 79.4281C221.113 79.869 221.184 80.345 221.143 80.8181L220.493 90.1392C220.48 90.2877 220.412 90.4261 220.303 90.5272C220.194 90.6283 220.05 90.6849 219.902 90.686Z" fill="#407BFF"/>
<path d="M168.877 129.728C168.403 129.734 167.934 129.63 167.507 129.423C167.081 129.217 166.708 128.913 166.42 128.537C165.95 127.89 165.735 127.093 165.815 126.298L166.465 117.094C166.478 116.946 166.545 116.809 166.653 116.708C166.761 116.607 166.902 116.55 167.05 116.547H167.492C167.562 116.547 167.631 116.561 167.696 116.589C167.76 116.617 167.817 116.658 167.865 116.709C167.913 116.761 167.949 116.821 167.972 116.887C167.995 116.954 168.004 117.024 167.999 117.094L167.349 126.363C167.313 126.73 167.395 127.1 167.583 127.417C167.73 127.657 167.937 127.854 168.183 127.99C168.429 128.126 168.706 128.195 168.987 128.192H178.295C178.366 128.191 178.436 128.204 178.501 128.232C178.566 128.259 178.624 128.3 178.672 128.352C178.721 128.403 178.758 128.464 178.781 128.531C178.805 128.597 178.814 128.668 178.809 128.739V129.181C178.796 129.329 178.729 129.466 178.621 129.567C178.513 129.668 178.371 129.725 178.224 129.728H168.877Z" fill="#407BFF"/>
<path d="M177.71 142.883C177.518 143.094 177.282 143.261 177.02 143.374C176.758 143.486 176.474 143.541 176.189 143.534C175.377 143.534 174.831 143.241 174.051 142.349C173.711 142.323 173.38 142.229 173.077 142.074C172.774 141.918 172.505 141.703 172.285 141.442C172.066 141.18 171.901 140.878 171.8 140.552C171.7 140.226 171.665 139.883 171.698 139.544C171.761 138.753 172.127 138.017 172.719 137.491C173.312 136.964 174.085 136.688 174.876 136.719C175.252 136.69 175.631 136.743 175.984 136.876C176.338 137.008 176.658 137.216 176.924 137.484C177.189 137.753 177.393 138.077 177.521 138.432C177.649 138.788 177.698 139.167 177.665 139.544C177.624 140.154 177.398 140.738 177.017 141.216C176.636 141.694 176.118 142.044 175.533 142.219C175.618 142.336 175.729 142.431 175.858 142.497C175.987 142.562 176.129 142.597 176.274 142.597C176.446 142.596 176.616 142.559 176.773 142.49C176.931 142.42 177.073 142.319 177.19 142.193L177.71 142.883ZM174.558 141.314C175.031 141.32 175.487 141.14 175.83 140.812C176.172 140.485 176.374 140.037 176.391 139.563C176.421 139.34 176.403 139.113 176.336 138.898C176.269 138.683 176.156 138.486 176.005 138.319C175.854 138.153 175.668 138.022 175.46 137.935C175.253 137.849 175.029 137.809 174.805 137.819C174.332 137.813 173.877 137.993 173.534 138.318C173.192 138.644 172.99 139.091 172.972 139.563C172.94 139.787 172.958 140.014 173.024 140.23C173.09 140.446 173.203 140.644 173.354 140.812C173.505 140.979 173.692 141.111 173.9 141.197C174.108 141.284 174.332 141.324 174.558 141.314Z" fill="#263238"/>
<path d="M181.909 142.297L180.96 140.774H179.797L179.693 142.297H178.432L178.815 136.836H181.175C182.631 136.836 183.489 137.591 183.404 138.789C183.386 139.166 183.259 139.529 183.038 139.835C182.818 140.141 182.514 140.377 182.163 140.514L183.261 142.271L181.909 142.297ZM181.032 137.864H180.005L179.868 139.772H180.902C181.669 139.772 182.085 139.407 182.13 138.815C182.176 138.222 181.805 137.864 181.032 137.864Z" fill="#263238"/>
<path d="M186.219 139.563C186.277 138.774 186.639 138.039 187.228 137.512C187.817 136.985 188.588 136.707 189.378 136.738C189.791 136.714 190.205 136.79 190.584 136.959C190.963 137.127 191.296 137.384 191.555 137.708L190.691 138.457C190.539 138.254 190.343 138.09 190.118 137.977C189.892 137.864 189.643 137.805 189.391 137.806C188.913 137.792 188.449 137.967 188.099 138.294C187.75 138.62 187.544 139.072 187.525 139.55C187.494 139.777 187.513 140.008 187.582 140.226C187.651 140.444 187.767 140.644 187.923 140.812C188.078 140.98 188.269 141.11 188.481 141.195C188.694 141.28 188.922 141.316 189.15 141.301C189.419 141.301 189.685 141.242 189.929 141.13C190.174 141.018 190.391 140.854 190.567 140.65L191.321 141.399C191.027 141.719 190.668 141.973 190.267 142.141C189.867 142.31 189.435 142.389 189 142.375C188.626 142.403 188.25 142.349 187.898 142.217C187.546 142.085 187.227 141.878 186.963 141.611C186.698 141.344 186.495 141.022 186.366 140.669C186.238 140.315 186.187 139.938 186.219 139.563Z" fill="#263238"/>
<path d="M191.822 139.563C191.885 138.773 192.251 138.037 192.843 137.51C193.436 136.984 194.209 136.707 195 136.738C195.376 136.709 195.754 136.763 196.108 136.895C196.462 137.027 196.782 137.235 197.048 137.504C197.313 137.773 197.517 138.096 197.645 138.452C197.773 138.808 197.822 139.187 197.789 139.563C197.727 140.355 197.362 141.092 196.769 141.62C196.176 142.148 195.403 142.426 194.61 142.395C194.233 142.424 193.854 142.37 193.5 142.238C193.146 142.105 192.825 141.897 192.56 141.627C192.294 141.357 192.091 141.033 191.963 140.677C191.836 140.32 191.787 139.94 191.822 139.563ZM196.515 139.563C196.545 139.34 196.527 139.113 196.46 138.898C196.393 138.683 196.28 138.486 196.129 138.319C195.978 138.153 195.792 138.022 195.584 137.935C195.377 137.849 195.153 137.809 194.929 137.819C194.456 137.813 194.001 137.993 193.658 138.318C193.316 138.644 193.114 139.091 193.096 139.563C193.064 139.787 193.082 140.014 193.148 140.23C193.214 140.446 193.327 140.644 193.478 140.812C193.629 140.979 193.816 141.111 194.024 141.197C194.232 141.284 194.456 141.324 194.682 141.314C195.155 141.32 195.611 141.14 195.954 140.812C196.296 140.485 196.498 140.037 196.515 139.563Z" fill="#263238"/>
<path d="M198.933 136.836H201.416C203.197 136.836 204.347 137.91 204.23 139.563C204.113 141.217 202.82 142.297 201.032 142.297H198.556L198.933 136.836ZM201.045 141.262C201.283 141.281 201.522 141.251 201.748 141.175C201.974 141.099 202.183 140.978 202.361 140.819C202.539 140.661 202.684 140.468 202.786 140.252C202.889 140.036 202.946 139.802 202.956 139.563C202.985 139.335 202.962 139.103 202.889 138.886C202.815 138.668 202.693 138.47 202.531 138.306C202.369 138.143 202.172 138.019 201.955 137.944C201.738 137.868 201.507 137.843 201.279 137.871H200.129L199.888 141.262H201.045Z" fill="#263238"/>
<path d="M209.3 141.282L209.229 142.297H205.004L205.387 136.836H209.508L209.437 137.851H206.57L206.486 139.036H209.021L208.949 140.019H206.414L206.33 141.282H209.3Z" fill="#263238"/>
<path d="M238.498 55.4778H156.039L157.983 27.6381H240.442L238.498 55.4778Z" fill="#407BFF"/>
<path opacity="0.2" d="M148.252 172.109C148.148 173.387 148.314 174.673 148.738 175.883C149.163 177.093 149.836 178.2 150.715 179.133L238.322 15.1013C237.468 14.2508 236.454 13.5787 235.338 13.124C234.222 12.6692 233.027 12.4408 231.822 12.4521H169.227C166.568 12.4931 164.019 13.5234 162.076 15.3426C160.134 17.1617 158.936 19.6395 158.717 22.2939L148.252 172.109Z" fill="white"/>
<path d="M178.282 32.5572L177.033 50.5312L177.682 50.5765L178.931 32.6024L178.282 32.5572Z" fill="#E0E0E0"/>
<path d="M198.845 32.5547L197.596 50.5288L198.245 50.5741L199.494 32.6L198.845 32.5547Z" fill="#E0E0E0"/>
<path d="M219.375 32.5427L218.13 50.517L218.779 50.5621L220.025 32.5878L219.375 32.5427Z" fill="#E0E0E0"/>
<path d="M173.257 81.6382L173.141 83.3826H174.882L175.006 81.6382H173.257Z" fill="#263238"/>
<path d="M175.006 81.6382L174.883 83.3826H176.631L176.748 81.6382H175.006Z" fill="#263238"/>
<path d="M176.748 81.6382L176.631 83.3826H178.373L178.496 81.6382H176.748Z" fill="#263238"/>
<path d="M178.496 81.6382L178.373 83.3826H180.121L180.238 81.6382H178.496Z" fill="#263238"/>
<path d="M180.238 81.6382L180.121 83.3826H181.863L181.987 81.6382H180.238Z" fill="#263238"/>
<path d="M181.987 81.6382L181.864 83.3826H183.612L183.736 81.6382H181.987Z" fill="#263238"/>
<path d="M183.736 81.6382L183.612 83.3826H185.354L185.477 81.6382H183.736Z" fill="#263238"/>
<path d="M190.717 81.6382L190.593 83.3826H192.335L192.459 81.6382H190.717Z" fill="#263238"/>
<path d="M195.949 81.6382L195.826 83.3826H197.574L197.698 81.6382H195.949Z" fill="#263238"/>
<path d="M197.697 81.6382L197.574 83.3826H199.316L199.439 81.6382H197.697Z" fill="#263238"/>
<path d="M199.439 81.6382L199.316 83.3826H201.064L201.188 81.6382H199.439Z" fill="#263238"/>
<path d="M201.188 81.6382L201.065 83.3826H202.807L202.93 81.6382H201.188Z" fill="#263238"/>
<path d="M204.678 81.6382L204.555 83.3826H206.297L206.42 81.6382H204.678Z" fill="#263238"/>
<path d="M206.42 81.6382L206.297 83.3826H208.045L208.169 81.6382H206.42Z" fill="#263238"/>
<path d="M208.169 81.6382L208.046 83.3826H209.794L209.911 81.6382H208.169Z" fill="#263238"/>
<path d="M209.911 81.6382L209.794 83.3826H211.536L211.66 81.6382H209.911Z" fill="#263238"/>
<path d="M211.66 81.6382L211.536 83.3826H213.285L213.402 81.6382H211.66Z" fill="#263238"/>
<path d="M213.401 81.6382L213.284 83.3826H215.026L215.15 81.6382H213.401Z" fill="#263238"/>
<path d="M215.15 81.6382L215.026 83.3826H216.775L216.898 81.6382H215.15Z" fill="#263238"/>
<path d="M173.14 83.3826L173.017 85.1335H174.759L174.882 83.3826H173.14Z" fill="#263238"/>
<path d="M183.612 83.3826L183.489 85.1335H185.231L185.354 83.3826H183.612Z" fill="#263238"/>
<path d="M188.844 83.3826L188.727 85.1335H190.469L190.593 83.3826H188.844Z" fill="#263238"/>
<path d="M197.574 83.3826L197.451 85.1335H199.199L199.316 83.3826H197.574Z" fill="#263238"/>
<path d="M199.316 83.3826L199.199 85.1335H200.941L201.065 83.3826H199.316Z" fill="#263238"/>
<path d="M201.064 83.3826L200.941 85.1335H202.689L202.806 83.3826H201.064Z" fill="#263238"/>
<path d="M204.555 83.3826L204.432 85.1335H206.18L206.297 83.3826H204.555Z" fill="#263238"/>
<path d="M215.027 83.3826L214.903 85.1335H216.652L216.775 83.3826H215.027Z" fill="#263238"/>
<path d="M173.017 85.1337L172.893 86.8781H174.642L174.759 85.1337H173.017Z" fill="#263238"/>
<path d="M176.507 85.1337L176.384 86.8781H178.132L178.249 85.1337H176.507Z" fill="#263238"/>
<path d="M178.25 85.1337L178.133 86.8781H179.875L179.998 85.1337H178.25Z" fill="#263238"/>
<path d="M179.998 85.1337L179.875 86.8781H181.623L181.74 85.1337H179.998Z" fill="#263238"/>
<path d="M183.488 85.1337L183.365 86.8781H185.113L185.23 85.1337H183.488Z" fill="#263238"/>
<path d="M186.979 85.1337L186.855 86.8781H188.604L188.727 85.1337H186.979Z" fill="#263238"/>
<path d="M192.218 85.1337L192.094 86.8781H193.836L193.96 85.1337H192.218Z" fill="#263238"/>
<path d="M197.45 85.1337L197.327 86.8781H199.075L199.199 85.1337H197.45Z" fill="#263238"/>
<path d="M204.431 85.1337L204.308 86.8781H206.056L206.18 85.1337H204.431Z" fill="#263238"/>
<path d="M207.922 85.1337L207.799 86.8781H209.547L209.671 85.1337H207.922Z" fill="#263238"/>
<path d="M209.67 85.1337L209.547 86.8781H211.295L211.412 85.1337H209.67Z" fill="#263238"/>
<path d="M211.413 85.1337L211.296 86.8781H213.038L213.161 85.1337H211.413Z" fill="#263238"/>
<path d="M214.903 85.1337L214.786 86.8781H216.528L216.652 85.1337H214.903Z" fill="#263238"/>
<path d="M172.894 86.8781L172.77 88.629H174.519L174.642 86.8781H172.894Z" fill="#263238"/>
<path d="M176.384 86.8781L176.26 88.629H178.009L178.132 86.8781H176.384Z" fill="#263238"/>
<path d="M178.132 86.8781L178.009 88.629H179.751L179.874 86.8781H178.132Z" fill="#263238"/>
<path d="M179.874 86.8781L179.751 88.629H181.499L181.623 86.8781H179.874Z" fill="#263238"/>
<path d="M183.365 86.8781L183.242 88.629H184.99L185.114 86.8781H183.365Z" fill="#263238"/>
<path d="M188.604 86.8781L188.481 88.629H190.223L190.346 86.8781H188.604Z" fill="#263238"/>
<path d="M197.327 86.8781L197.21 88.629H198.952L199.076 86.8781H197.327Z" fill="#263238"/>
<path d="M199.076 86.8781L198.952 88.629H200.701L200.818 86.8781H199.076Z" fill="#263238"/>
<path d="M204.308 86.8781L204.191 88.629H205.933L206.057 86.8781H204.308Z" fill="#263238"/>
<path d="M207.799 86.8781L207.682 88.629H209.424L209.547 86.8781H207.799Z" fill="#263238"/>
<path d="M209.547 86.8781L209.424 88.629H211.172L211.296 86.8781H209.547Z" fill="#263238"/>
<path d="M211.295 86.8781L211.172 88.629H212.914L213.037 86.8781H211.295Z" fill="#263238"/>
<path d="M214.786 86.8781L214.662 88.629H216.404L216.528 86.8781H214.786Z" fill="#263238"/>
<path d="M172.77 88.629L172.646 90.3735H174.395L174.518 88.629H172.77Z" fill="#263238"/>
<path d="M176.261 88.629L176.143 90.3735H177.886L178.009 88.629H176.261Z" fill="#263238"/>
<path d="M178.009 88.629L177.885 90.3735H179.634L179.751 88.629H178.009Z" fill="#263238"/>
<path d="M179.751 88.629L179.634 90.3735H181.376L181.499 88.629H179.751Z" fill="#263238"/>
<path d="M183.242 88.629L183.125 90.3735H184.867L184.99 88.629H183.242Z" fill="#263238"/>
<path d="M188.48 88.629L188.357 90.3735H190.105L190.222 88.629H188.48Z" fill="#263238"/>
<path d="M193.713 88.629L193.596 90.3735H195.338L195.462 88.629H193.713Z" fill="#263238"/>
<path d="M195.462 88.629L195.338 90.3735H197.087L197.21 88.629H195.462Z" fill="#263238"/>
<path d="M197.21 88.629L197.086 90.3735H198.829L198.952 88.629H197.21Z" fill="#263238"/>
<path d="M198.952 88.629L198.828 90.3735H200.577L200.7 88.629H198.952Z" fill="#263238"/>
<path d="M204.191 88.629L204.068 90.3735H205.81L205.933 88.629H204.191Z" fill="#263238"/>
<path d="M207.681 88.629L207.558 90.3735H209.3L209.423 88.629H207.681Z" fill="#263238"/>
<path d="M209.423 88.629L209.3 90.3735H211.048L211.172 88.629H209.423Z" fill="#263238"/>
<path d="M211.172 88.629L211.049 90.3735H212.797L212.914 88.629H211.172Z" fill="#263238"/>
<path d="M214.663 88.629L214.539 90.3735H216.288L216.404 88.629H214.663Z" fill="#263238"/>
<path d="M172.646 90.3734L172.529 92.1244H174.271L174.395 90.3734H172.646Z" fill="#263238"/>
<path d="M183.125 90.3734L183.001 92.1244H184.743L184.867 90.3734H183.125Z" fill="#263238"/>
<path d="M190.105 90.3734L189.982 92.1244H191.724L191.847 90.3734H190.105Z" fill="#263238"/>
<path d="M191.848 90.3734L191.724 92.1244H193.473L193.596 90.3734H191.848Z" fill="#263238"/>
<path d="M195.338 90.3734L195.214 92.1244H196.963L197.086 90.3734H195.338Z" fill="#263238"/>
<path d="M197.087 90.3734L196.963 92.1244H198.705L198.829 90.3734H197.087Z" fill="#263238"/>
<path d="M198.829 90.3734L198.705 92.1244H200.454L200.577 90.3734H198.829Z" fill="#263238"/>
<path d="M200.577 90.3734L200.453 92.1244H202.202L202.319 90.3734H200.577Z" fill="#263238"/>
<path d="M204.067 90.3734L203.944 92.1244H205.692L205.809 90.3734H204.067Z" fill="#263238"/>
<path d="M214.539 90.3734L214.415 92.1244H216.164L216.287 90.3734H214.539Z" fill="#263238"/>
<path d="M172.53 92.1245L172.406 93.8755H174.148L174.272 92.1245H172.53Z" fill="#263238"/>
<path d="M174.271 92.1245L174.148 93.8755H175.896L176.02 92.1245H174.271Z" fill="#263238"/>
<path d="M176.02 92.1245L175.896 93.8755H177.638L177.762 92.1245H176.02Z" fill="#263238"/>
<path d="M177.762 92.1245L177.638 93.8755H179.387L179.51 92.1245H177.762Z" fill="#263238"/>
<path d="M179.511 92.1245L179.387 93.8755H181.136L181.253 92.1245H179.511Z" fill="#263238"/>
<path d="M181.252 92.1245L181.135 93.8755H182.877L183.001 92.1245H181.252Z" fill="#263238"/>
<path d="M183.001 92.1245L182.878 93.8755H184.626L184.743 92.1245H183.001Z" fill="#263238"/>
<path d="M186.491 92.1245L186.368 93.8755H188.116L188.233 92.1245H186.491Z" fill="#263238"/>
<path d="M189.982 92.1245L189.859 93.8755H191.607L191.724 92.1245H189.982Z" fill="#263238"/>
<path d="M193.473 92.1245L193.349 93.8755H195.098L195.214 92.1245H193.473Z" fill="#263238"/>
<path d="M196.963 92.1245L196.839 93.8755H198.588L198.705 92.1245H196.963Z" fill="#263238"/>
<path d="M200.454 92.1245L200.33 93.8755H202.079L202.202 92.1245H200.454Z" fill="#263238"/>
<path d="M203.944 92.1245L203.82 93.8755H205.569L205.692 92.1245H203.944Z" fill="#263238"/>
<path d="M205.693 92.1245L205.569 93.8755H207.311L207.435 92.1245H205.693Z" fill="#263238"/>
<path d="M207.435 92.1245L207.311 93.8755H209.06L209.183 92.1245H207.435Z" fill="#263238"/>
<path d="M209.183 92.1245L209.06 93.8755H210.802L210.925 92.1245H209.183Z" fill="#263238"/>
<path d="M210.925 92.1245L210.802 93.8755H212.55L212.674 92.1245H210.925Z" fill="#263238"/>
<path d="M212.673 92.1245L212.55 93.8755H214.298L214.415 92.1245H212.673Z" fill="#263238"/>
<path d="M214.416 92.1245L214.299 93.8755H216.041L216.164 92.1245H214.416Z" fill="#263238"/>
<path d="M186.368 93.8755L186.245 95.6199H187.993L188.117 93.8755H186.368Z" fill="#263238"/>
<path d="M193.349 93.8755L193.225 95.6199H194.974L195.097 93.8755H193.349Z" fill="#263238"/>
<path d="M195.098 93.8755L194.974 95.6199H196.716L196.839 93.8755H195.098Z" fill="#263238"/>
<path d="M200.33 93.8755L200.206 95.6199H201.955L202.078 93.8755H200.33Z" fill="#263238"/>
<path d="M172.282 95.6199L172.159 97.3708H173.907L174.031 95.6199H172.282Z" fill="#263238"/>
<path d="M174.031 95.6199L173.907 97.3708H175.649L175.773 95.6199H174.031Z" fill="#263238"/>
<path d="M175.773 95.6199L175.65 97.3708H177.398L177.522 95.6199H175.773Z" fill="#263238"/>
<path d="M179.264 95.6199L179.14 97.3708H180.889L181.012 95.6199H179.264Z" fill="#263238"/>
<path d="M181.012 95.6199L180.888 97.3708H182.637L182.754 95.6199H181.012Z" fill="#263238"/>
<path d="M182.754 95.6199L182.637 97.3708H184.379L184.503 95.6199H182.754Z" fill="#263238"/>
<path d="M184.502 95.6199L184.379 97.3708H186.127L186.244 95.6199H184.502Z" fill="#263238"/>
<path d="M186.244 95.6199L186.128 97.3708H187.869L187.993 95.6199H186.244Z" fill="#263238"/>
<path d="M191.483 95.6199L191.36 97.3708H193.108L193.225 95.6199H191.483Z" fill="#263238"/>
<path d="M193.225 95.6199L193.108 97.3708H194.85L194.974 95.6199H193.225Z" fill="#263238"/>
<path d="M194.974 95.6199L194.85 97.3708H196.599L196.716 95.6199H194.974Z" fill="#263238"/>
<path d="M200.206 95.6199L200.089 97.3708H201.831L201.955 95.6199H200.206Z" fill="#263238"/>
<path d="M201.955 95.6199L201.831 97.3708H203.58L203.703 95.6199H201.955Z" fill="#263238"/>
<path d="M203.704 95.6199L203.58 97.3708H205.322L205.446 95.6199H203.704Z" fill="#263238"/>
<path d="M210.685 95.6199L210.561 97.3708H212.303L212.427 95.6199H210.685Z" fill="#263238"/>
<path d="M175.649 97.3708L175.532 99.1153H177.274L177.398 97.3708H175.649Z" fill="#263238"/>
<path d="M177.398 97.3708L177.275 99.1153H179.023L179.14 97.3708H177.398Z" fill="#263238"/>
<path d="M179.14 97.3708L179.023 99.1153H180.765L180.889 97.3708H179.14Z" fill="#263238"/>
<path d="M184.379 97.3708L184.255 99.1153H186.004L186.127 97.3708H184.379Z" fill="#263238"/>
<path d="M186.128 97.3708L186.004 99.1153H187.746L187.87 97.3708H186.128Z" fill="#263238"/>
<path d="M187.87 97.3708L187.746 99.1153H189.495L189.618 97.3708H187.87Z" fill="#263238"/>
<path d="M191.36 97.3708L191.237 99.1153H192.985L193.109 97.3708H191.36Z" fill="#263238"/>
<path d="M193.108 97.3708L192.985 99.1153H194.727L194.85 97.3708H193.108Z" fill="#263238"/>
<path d="M200.089 97.3708L199.966 99.1153H201.708L201.832 97.3708H200.089Z" fill="#263238"/>
<path d="M203.58 97.3708L203.457 99.1153H205.199L205.322 97.3708H203.58Z" fill="#263238"/>
<path d="M214.051 97.3708L213.928 99.1153H215.676L215.8 97.3708H214.051Z" fill="#263238"/>
<path d="M175.532 99.1152L175.409 100.866H177.151L177.275 99.1152H175.532Z" fill="#263238"/>
<path d="M182.514 99.1152L182.39 100.866H184.132L184.256 99.1152H182.514Z" fill="#263238"/>
<path d="M184.256 99.1152L184.132 100.866H185.881L186.004 99.1152H184.256Z" fill="#263238"/>
<path d="M189.494 99.1152L189.371 100.866H191.113L191.236 99.1152H189.494Z" fill="#263238"/>
<path d="M192.985 99.1152L192.862 100.866H194.61L194.727 99.1152H192.985Z" fill="#263238"/>
<path d="M196.475 99.1152L196.352 100.866H198.1L198.218 99.1152H196.475Z" fill="#263238"/>
<path d="M203.457 99.1152L203.333 100.866H205.082L205.199 99.1152H203.457Z" fill="#263238"/>
<path d="M205.198 99.1152L205.081 100.866H206.823L206.947 99.1152H205.198Z" fill="#263238"/>
<path d="M206.947 99.1152L206.823 100.866H208.572L208.695 99.1152H206.947Z" fill="#263238"/>
<path d="M210.438 99.1152L210.314 100.866H212.063L212.186 99.1152H210.438Z" fill="#263238"/>
<path d="M212.186 99.1152L212.062 100.866H213.804L213.928 99.1152H212.186Z" fill="#263238"/>
<path d="M213.928 99.1152L213.805 100.866H215.553L215.677 99.1152H213.928Z" fill="#263238"/>
<path d="M171.918 100.866L171.795 102.611H173.543L173.66 100.866H171.918Z" fill="#263238"/>
<path d="M173.66 100.866L173.543 102.611H175.285L175.409 100.866H173.66Z" fill="#263238"/>
<path d="M175.409 100.866L175.286 102.611H177.034L177.151 100.866H175.409Z" fill="#263238"/>
<path d="M178.9 100.866L178.776 102.611H180.525L180.641 100.866H178.9Z" fill="#263238"/>
<path d="M187.622 100.866L187.505 102.611H189.247L189.371 100.866H187.622Z" fill="#263238"/>
<path d="M189.371 100.866L189.247 102.611H190.996L191.113 100.866H189.371Z" fill="#263238"/>
<path d="M192.861 100.866L192.738 102.611H194.486L194.61 100.866H192.861Z" fill="#263238"/>
<path d="M194.61 100.866L194.487 102.611H196.229L196.352 100.866H194.61Z" fill="#263238"/>
<path d="M196.352 100.866L196.229 102.611H197.977L198.1 100.866H196.352Z" fill="#263238"/>
<path d="M198.1 100.866L197.977 102.611H199.719L199.843 100.866H198.1Z" fill="#263238"/>
<path d="M201.591 100.866L201.468 102.611H203.21L203.333 100.866H201.591Z" fill="#263238"/>
<path d="M203.333 100.866L203.209 102.611H204.958L205.081 100.866H203.333Z" fill="#263238"/>
<path d="M205.082 100.866L204.958 102.611H206.7L206.824 100.866H205.082Z" fill="#263238"/>
<path d="M212.062 100.866L211.939 102.611H213.687L213.804 100.866H212.062Z" fill="#263238"/>
<path d="M175.285 102.611L175.162 104.362H176.91L177.034 102.611H175.285Z" fill="#263238"/>
<path d="M177.034 102.611L176.911 104.362H178.653L178.776 102.611H177.034Z" fill="#263238"/>
<path d="M182.267 102.611L182.143 104.362H183.892L184.015 102.611H182.267Z" fill="#263238"/>
<path d="M185.757 102.611L185.633 104.362H187.382L187.505 102.611H185.757Z" fill="#263238"/>
<path d="M189.248 102.611L189.124 104.362H190.873L190.996 102.611H189.248Z" fill="#263238"/>
<path d="M194.486 102.611L194.363 104.362H196.111L196.228 102.611H194.486Z" fill="#263238"/>
<path d="M199.719 102.611L199.602 104.362H201.344L201.468 102.611H199.719Z" fill="#263238"/>
<path d="M201.467 102.611L201.344 104.362H203.092L203.209 102.611H201.467Z" fill="#263238"/>
<path d="M203.21 102.611L203.093 104.362H204.835L204.958 102.611H203.21Z" fill="#263238"/>
<path d="M204.958 102.611L204.835 104.362H206.583L206.7 102.611H204.958Z" fill="#263238"/>
<path d="M208.449 102.611L208.325 104.362H210.074L210.197 102.611H208.449Z" fill="#263238"/>
<path d="M211.939 102.611L211.815 104.362H213.564L213.687 102.611H211.939Z" fill="#263238"/>
<path d="M213.688 102.611L213.564 104.362H215.306L215.43 102.611H213.688Z" fill="#263238"/>
<path d="M180.401 104.362L180.278 106.106H182.026L182.143 104.362H180.401Z" fill="#263238"/>
<path d="M183.892 104.362L183.768 106.106H185.517L185.634 104.362H183.892Z" fill="#263238"/>
<path d="M185.633 104.362L185.516 106.106H187.258L187.382 104.362H185.633Z" fill="#263238"/>
<path d="M189.124 104.362L189.007 106.106H190.749L190.873 104.362H189.124Z" fill="#263238"/>
<path d="M192.614 104.362L192.497 106.106H194.239L194.363 104.362H192.614Z" fill="#263238"/>
<path d="M199.602 104.362L199.479 106.106H201.221L201.344 104.362H199.602Z" fill="#263238"/>
<path d="M201.344 104.362L201.221 106.106H202.969L203.093 104.362H201.344Z" fill="#263238"/>
<path d="M203.092 104.362L202.969 106.106H204.711L204.834 104.362H203.092Z" fill="#263238"/>
<path d="M208.325 104.362L208.201 106.106H209.95L210.073 104.362H208.325Z" fill="#263238"/>
<path d="M213.564 104.362L213.44 106.106H215.189L215.306 104.362H213.564Z" fill="#263238"/>
<path d="M171.548 106.106L171.431 107.857H173.173L173.297 106.106H171.548Z" fill="#263238"/>
<path d="M176.787 106.106L176.664 107.857H178.412L178.536 106.106H176.787Z" fill="#263238"/>
<path d="M178.535 106.106L178.412 107.857H180.154L180.277 106.106H178.535Z" fill="#263238"/>
<path d="M180.277 106.106L180.154 107.857H181.902L182.026 106.106H180.277Z" fill="#263238"/>
<path d="M182.026 106.106L181.903 107.857H183.645L183.768 106.106H182.026Z" fill="#263238"/>
<path d="M183.768 106.106L183.644 107.857H185.393L185.516 106.106H183.768Z" fill="#263238"/>
<path d="M187.259 106.106L187.135 107.857H188.884L189.007 106.106H187.259Z" fill="#263238"/>
<path d="M189.007 106.106L188.883 107.857H190.625L190.749 106.106H189.007Z" fill="#263238"/>
<path d="M194.24 106.106L194.116 107.857H195.865L195.988 106.106H194.24Z" fill="#263238"/>
<path d="M199.478 106.106L199.355 107.857H201.103L201.22 106.106H199.478Z" fill="#263238"/>
<path d="M201.221 106.106L201.104 107.857H202.846L202.969 106.106H201.221Z" fill="#263238"/>
<path d="M202.969 106.106L202.846 107.857H204.594L204.711 106.106H202.969Z" fill="#263238"/>
<path d="M204.711 106.106L204.594 107.857H206.336L206.459 106.106H204.711Z" fill="#263238"/>
<path d="M209.95 106.106L209.826 107.857H211.575L211.698 106.106H209.95Z" fill="#263238"/>
<path d="M211.699 106.106L211.575 107.857H213.317L213.441 106.106H211.699Z" fill="#263238"/>
<path d="M213.441 106.106L213.317 107.857H215.066L215.189 106.106H213.441Z" fill="#263238"/>
<path d="M173.173 107.857L173.049 109.602H174.798L174.921 107.857H173.173Z" fill="#263238"/>
<path d="M174.922 107.857L174.798 109.602H176.547L176.664 107.857H174.922Z" fill="#263238"/>
<path d="M180.154 107.857L180.037 109.602H181.779L181.902 107.857H180.154Z" fill="#263238"/>
<path d="M183.645 107.857L183.528 109.602H185.27L185.393 107.857H183.645Z" fill="#263238"/>
<path d="M187.135 107.857L187.018 109.602H188.76L188.884 107.857H187.135Z" fill="#263238"/>
<path d="M188.884 107.857L188.76 109.602H190.509L190.626 107.857H188.884Z" fill="#263238"/>
<path d="M194.116 107.857L193.999 109.602H195.741L195.865 107.857H194.116Z" fill="#263238"/>
<path d="M197.613 107.857L197.49 109.602H199.232L199.355 107.857H197.613Z" fill="#263238"/>
<path d="M202.845 107.857L202.722 109.602H204.47L204.594 107.857H202.845Z" fill="#263238"/>
<path d="M206.336 107.857L206.213 109.602H207.961L208.085 107.857H206.336Z" fill="#263238"/>
<path d="M211.575 107.857L211.452 109.602H213.2L213.317 107.857H211.575Z" fill="#263238"/>
<path d="M171.308 109.602L171.184 111.353H172.933L173.05 109.602H171.308Z" fill="#263238"/>
<path d="M174.798 109.602L174.674 111.353H176.423L176.546 109.602H174.798Z" fill="#263238"/>
<path d="M180.037 109.602L179.914 111.353H181.656L181.779 109.602H180.037Z" fill="#263238"/>
<path d="M181.779 109.602L181.656 111.353H183.404L183.528 109.602H181.779Z" fill="#263238"/>
<path d="M183.527 109.602L183.404 111.353H185.146L185.269 109.602H183.527Z" fill="#263238"/>
<path d="M193.999 109.602L193.875 111.353H195.618L195.741 109.602H193.999Z" fill="#263238"/>
<path d="M199.231 109.602L199.108 111.353H200.856L200.98 109.602H199.231Z" fill="#263238"/>
<path d="M200.98 109.602L200.857 111.353H202.605L202.722 109.602H200.98Z" fill="#263238"/>
<path d="M202.722 109.602L202.605 111.353H204.347L204.47 109.602H202.722Z" fill="#263238"/>
<path d="M204.47 109.602L204.347 111.353H206.095L206.212 109.602H204.47Z" fill="#263238"/>
<path d="M206.213 109.602L206.096 111.353H207.838L207.961 109.602H206.213Z" fill="#263238"/>
<path d="M207.961 109.602L207.838 111.353H209.586L209.71 109.602H207.961Z" fill="#263238"/>
<path d="M185.146 111.353L185.023 113.097H186.771L186.895 111.353H185.146Z" fill="#263238"/>
<path d="M188.636 111.353L188.519 113.097H190.261L190.385 111.353H188.636Z" fill="#263238"/>
<path d="M192.127 111.353L192.01 113.097H193.752L193.876 111.353H192.127Z" fill="#263238"/>
<path d="M199.108 111.353L198.991 113.097H200.733L200.857 111.353H199.108Z" fill="#263238"/>
<path d="M206.095 111.353L205.972 113.097H207.714L207.837 111.353H206.095Z" fill="#263238"/>
<path d="M207.837 111.353L207.714 113.097H209.462L209.586 111.353H207.837Z" fill="#263238"/>
<path d="M211.328 111.353L211.204 113.097H212.953L213.076 111.353H211.328Z" fill="#263238"/>
<path d="M213.077 111.353L212.953 113.097H214.702L214.818 111.353H213.077Z" fill="#263238"/>
<path d="M171.06 113.097L170.943 114.848H172.685L172.809 113.097H171.06Z" fill="#263238"/>
<path d="M172.809 113.097L172.686 114.848H174.434L174.551 113.097H172.809Z" fill="#263238"/>
<path d="M174.551 113.097L174.434 114.848H176.176L176.3 113.097H174.551Z" fill="#263238"/>
<path d="M176.3 113.097L176.176 114.848H177.925L178.042 113.097H176.3Z" fill="#263238"/>
<path d="M178.041 113.097L177.924 114.848H179.666L179.79 113.097H178.041Z" fill="#263238"/>
<path d="M179.79 113.097L179.667 114.848H181.415L181.539 113.097H179.79Z" fill="#263238"/>
<path d="M181.538 113.097L181.415 114.848H183.157L183.28 113.097H181.538Z" fill="#263238"/>
<path d="M185.023 113.097L184.906 114.848H186.648L186.771 113.097H185.023Z" fill="#263238"/>
<path d="M186.771 113.097L186.647 114.848H188.396L188.519 113.097H186.771Z" fill="#263238"/>
<path d="M188.519 113.097L188.396 114.848H190.138L190.261 113.097H188.519Z" fill="#263238"/>
<path d="M193.752 113.097L193.628 114.848H195.377L195.5 113.097H193.752Z" fill="#263238"/>
<path d="M195.501 113.097L195.377 114.848H197.119L197.243 113.097H195.501Z" fill="#263238"/>
<path d="M197.243 113.097L197.119 114.848H198.868L198.991 113.097H197.243Z" fill="#263238"/>
<path d="M198.991 113.097L198.867 114.848H200.609L200.733 113.097H198.991Z" fill="#263238"/>
<path d="M202.481 113.097L202.358 114.848H204.106L204.223 113.097H202.481Z" fill="#263238"/>
<path d="M205.972 113.097L205.849 114.848H207.597L207.714 113.097H205.972Z" fill="#263238"/>
<path d="M207.714 113.097L207.597 114.848H209.339L209.462 113.097H207.714Z" fill="#263238"/>
<path d="M211.205 113.097L211.088 114.848H212.83L212.953 113.097H211.205Z" fill="#263238"/>
<path d="M212.953 113.097L212.829 114.848H214.578L214.701 113.097H212.953Z" fill="#263238"/>
<path d="M170.944 114.848L170.82 116.592H172.562L172.686 114.848H170.944Z" fill="#263238"/>
<path d="M181.415 114.848L181.292 116.592H183.04L183.157 114.848H181.415Z" fill="#263238"/>
<path d="M184.905 114.848L184.782 116.592H186.524L186.647 114.848H184.905Z" fill="#263238"/>
<path d="M191.887 114.848L191.763 116.592H193.512L193.629 114.848H191.887Z" fill="#263238"/>
<path d="M193.628 114.848L193.511 116.592H195.253L195.377 114.848H193.628Z" fill="#263238"/>
<path d="M195.377 114.848L195.254 116.592H197.002L197.119 114.848H195.377Z" fill="#263238"/>
<path d="M198.868 114.848L198.744 116.592H200.493L200.61 114.848H198.868Z" fill="#263238"/>
<path d="M205.848 114.848L205.725 116.592H207.473L207.597 114.848H205.848Z" fill="#263238"/>
<path d="M207.597 114.848L207.474 116.592H209.216L209.339 114.848H207.597Z" fill="#263238"/>
<path d="M211.087 114.848L210.964 116.592H212.706L212.829 114.848H211.087Z" fill="#263238"/>
<path d="M170.82 116.593L170.696 118.344H172.445L172.562 116.593H170.82Z" fill="#263238"/>
<path d="M174.311 116.593L174.187 118.344H175.936L176.053 116.593H174.311Z" fill="#263238"/>
<path d="M176.052 116.593L175.935 118.344H177.677L177.801 116.593H176.052Z" fill="#263238"/>
<path d="M177.801 116.593L177.677 118.344H179.426L179.543 116.593H177.801Z" fill="#263238"/>
<path d="M181.292 116.593L181.168 118.344H182.917L183.04 116.593H181.292Z" fill="#263238"/>
<path d="M184.782 116.593L184.659 118.344H186.407L186.524 116.593H184.782Z" fill="#263238"/>
<path d="M190.021 116.593L189.898 118.344H191.64L191.763 116.593H190.021Z" fill="#263238"/>
<path d="M191.763 116.593L191.639 118.344H193.388L193.511 116.593H191.763Z" fill="#263238"/>
<path d="M193.512 116.593L193.388 118.344H195.13L195.254 116.593H193.512Z" fill="#263238"/>
<path d="M195.254 116.593L195.13 118.344H196.879L197.002 116.593H195.254Z" fill="#263238"/>
<path d="M198.744 116.593L198.62 118.344H200.369L200.492 116.593H198.744Z" fill="#263238"/>
<path d="M200.493 116.593L200.369 118.344H202.111L202.235 116.593H200.493Z" fill="#263238"/>
<path d="M202.235 116.593L202.111 118.344H203.86L203.983 116.593H202.235Z" fill="#263238"/>
<path d="M203.983 116.593L203.859 118.344H205.601L205.725 116.593H203.983Z" fill="#263238"/>
<path d="M205.725 116.593L205.602 118.344H207.35L207.474 116.593H205.725Z" fill="#263238"/>
<path d="M207.473 116.593L207.35 118.344H209.098L209.215 116.593H207.473Z" fill="#263238"/>
<path d="M210.964 116.593L210.841 118.344H212.589L212.706 116.593H210.964Z" fill="#263238"/>
<path d="M170.696 118.343L170.573 120.088H172.321L172.445 118.343H170.696Z" fill="#263238"/>
<path d="M174.187 118.343L174.063 120.088H175.812L175.935 118.343H174.187Z" fill="#263238"/>
<path d="M175.936 118.343L175.812 120.088H177.554L177.678 118.343H175.936Z" fill="#263238"/>
<path d="M177.678 118.343L177.554 120.088H179.303L179.426 118.343H177.678Z" fill="#263238"/>
<path d="M181.168 118.343L181.044 120.088H182.793L182.916 118.343H181.168Z" fill="#263238"/>
<path d="M186.407 118.343L186.284 120.088H188.026L188.149 118.343H186.407Z" fill="#263238"/>
<path d="M188.149 118.343L188.026 120.088H189.774L189.898 118.343H188.149Z" fill="#263238"/>
<path d="M191.639 118.343L191.516 120.088H193.264L193.388 118.343H191.639Z" fill="#263238"/>
<path d="M196.879 118.343L196.755 120.088H198.504L198.621 118.343H196.879Z" fill="#263238"/>
<path d="M198.621 118.343L198.504 120.088H200.246L200.369 118.343H198.621Z" fill="#263238"/>
<path d="M203.86 118.343L203.736 120.088H205.485L205.602 118.343H203.86Z" fill="#263238"/>
<path d="M205.601 118.343L205.484 120.088H207.226L207.35 118.343H205.601Z" fill="#263238"/>
<path d="M207.35 118.343L207.227 120.088H208.975L209.099 118.343H207.35Z" fill="#263238"/>
<path d="M209.098 118.343L208.975 120.088H210.717L210.84 118.343H209.098Z" fill="#263238"/>
<path d="M170.573 120.088L170.45 121.839H172.198L172.322 120.088H170.573Z" fill="#263238"/>
<path d="M174.063 120.088L173.946 121.839H175.688L175.812 120.088H174.063Z" fill="#263238"/>
<path d="M175.812 120.088L175.689 121.839H177.437L177.554 120.088H175.812Z" fill="#263238"/>
<path d="M177.554 120.088L177.437 121.839H179.179L179.303 120.088H177.554Z" fill="#263238"/>
<path d="M181.044 120.088L180.927 121.839H182.669L182.793 120.088H181.044Z" fill="#263238"/>
<path d="M184.535 120.088L184.418 121.839H186.16L186.284 120.088H184.535Z" fill="#263238"/>
<path d="M193.264 120.088L193.141 121.839H194.889L195.013 120.088H193.264Z" fill="#263238"/>
<path d="M196.755 120.088L196.632 121.839H198.38L198.504 120.088H196.755Z" fill="#263238"/>
<path d="M205.485 120.088L205.361 121.839H207.11L207.227 120.088H205.485Z" fill="#263238"/>
<path d="M212.465 120.088L212.342 121.839H214.09L214.207 120.088H212.465Z" fill="#263238"/>
<path d="M170.45 121.839L170.333 123.583H172.075L172.198 121.839H170.45Z" fill="#263238"/>
<path d="M180.928 121.839L180.804 123.583H182.546L182.67 121.839H180.928Z" fill="#263238"/>
<path d="M184.418 121.839L184.294 123.583H186.036L186.16 121.839H184.418Z" fill="#263238"/>
<path d="M186.16 121.839L186.036 123.583H187.785L187.909 121.839H186.16Z" fill="#263238"/>
<path d="M189.65 121.839L189.527 123.583H191.275L191.399 121.839H189.65Z" fill="#263238"/>
<path d="M193.141 121.839L193.018 123.583H194.766L194.89 121.839H193.141Z" fill="#263238"/>
<path d="M194.889 121.839L194.766 123.583H196.514L196.631 121.839H194.889Z" fill="#263238"/>
<path d="M196.631 121.839L196.514 123.583H198.256L198.38 121.839H196.631Z" fill="#263238"/>
<path d="M198.38 121.839L198.257 123.583H200.005L200.122 121.839H198.38Z" fill="#263238"/>
<path d="M201.871 121.839L201.747 123.583H203.496L203.613 121.839H201.871Z" fill="#263238"/>
<path d="M205.361 121.839L205.237 123.583H206.986L207.109 121.839H205.361Z" fill="#263238"/>
<path d="M207.11 121.839L206.986 123.583H208.728L208.852 121.839H207.11Z" fill="#263238"/>
<path d="M210.6 121.839L210.477 123.583H212.218L212.342 121.839H210.6Z" fill="#263238"/>
<path d="M170.332 123.583L170.209 125.334H171.951L172.075 123.583H170.332Z" fill="#263238"/>
<path d="M172.074 123.583L171.951 125.334H173.699L173.823 123.583H172.074Z" fill="#263238"/>
<path d="M173.823 123.583L173.7 125.334H175.448L175.565 123.583H173.823Z" fill="#263238"/>
<path d="M175.565 123.583L175.448 125.334H177.19L177.313 123.583H175.565Z" fill="#263238"/>
<path d="M177.314 123.583L177.19 125.334H178.939L179.055 123.583H177.314Z" fill="#263238"/>
<path d="M179.056 123.583L178.939 125.334H180.681L180.804 123.583H179.056Z" fill="#263238"/>
<path d="M180.804 123.583L180.68 125.334H182.429L182.546 123.583H180.804Z" fill="#263238"/>
<path d="M184.295 123.583L184.171 125.334H185.92L186.037 123.583H184.295Z" fill="#263238"/>
<path d="M186.036 123.583L185.919 125.334H187.661L187.785 123.583H186.036Z" fill="#263238"/>
<path d="M187.785 123.583L187.661 125.334H189.41L189.527 123.583H187.785Z" fill="#263238"/>
<path d="M189.527 123.583L189.41 125.334H191.152L191.275 123.583H189.527Z" fill="#263238"/>
<path d="M191.275 123.583L191.152 125.334H192.9L193.017 123.583H191.275Z" fill="#263238"/>
<path d="M193.018 123.583L192.901 125.334H194.643L194.766 123.583H193.018Z" fill="#263238"/>
<path d="M198.256 123.583L198.133 125.334H199.881L200.005 123.583H198.256Z" fill="#263238"/>
<path d="M200.005 123.583L199.882 125.334H201.624L201.747 123.583H200.005Z" fill="#263238"/>
<path d="M203.496 123.583L203.372 125.334H205.114L205.238 123.583H203.496Z" fill="#263238"/>
<path d="M210.476 123.583L210.353 125.334H212.101L212.218 123.583H210.476Z" fill="#263238"/>
<path d="M212.218 123.583L212.102 125.334H213.843L213.967 123.583H212.218Z" fill="#263238"/>
<path d="M123.897 231.343L128.967 230.119L126.347 218.324L121.284 219.548L123.897 231.343Z" fill="#FF887B"/>
<path d="M128.771 228.895L123.233 230.236C123.134 230.259 123.046 230.316 122.985 230.396C122.923 230.477 122.891 230.577 122.895 230.679L123.09 235.391C123.095 235.494 123.121 235.595 123.165 235.688C123.208 235.78 123.27 235.864 123.346 235.933C123.422 236.002 123.511 236.055 123.608 236.089C123.705 236.124 123.807 236.139 123.909 236.134C123.959 236.14 124.009 236.14 124.059 236.134C126.009 235.613 128.895 234.799 131.41 234.181C134.335 233.471 134.615 233.575 138.053 232.742C140.133 232.241 140.146 230.008 139.23 230.034C135.037 230.126 134.069 230.262 130.091 228.98C129.667 228.832 129.211 228.803 128.771 228.895Z" fill="#263238"/>
<path opacity="0.2" d="M126.347 218.331L127.699 224.411L122.629 225.634L121.284 219.555L126.347 218.331Z" fill="black"/>
<path d="M129.408 228.563C129.389 228.564 129.369 228.561 129.351 228.553C129.333 228.545 129.317 228.533 129.304 228.518C129.293 228.507 129.284 228.494 129.278 228.479C129.272 228.465 129.268 228.449 129.268 228.433C129.268 228.417 129.272 228.402 129.278 228.387C129.284 228.373 129.293 228.36 129.304 228.349C129.499 228.173 131.254 226.676 131.937 226.871C132.001 226.889 132.059 226.923 132.107 226.97C132.155 227.017 132.19 227.074 132.21 227.138C132.257 227.243 132.276 227.358 132.265 227.472C132.254 227.586 132.212 227.696 132.145 227.789C131.844 228.115 131.44 228.329 131.001 228.394C130.476 228.495 129.943 228.552 129.408 228.563ZM129.733 228.303C130.884 228.225 131.683 227.978 131.924 227.652C131.967 227.592 131.993 227.522 131.999 227.449C132.006 227.376 131.994 227.302 131.963 227.236C131.957 227.209 131.944 227.185 131.926 227.166C131.908 227.147 131.885 227.132 131.859 227.125C131.782 227.109 131.702 227.109 131.625 227.125C130.932 227.407 130.292 227.805 129.733 228.303Z" fill="#407BFF"/>
<path d="M129.35 228.57C129.332 228.56 129.316 228.546 129.303 228.529C129.291 228.512 129.283 228.493 129.279 228.472C129.279 228.42 129.064 227.04 129.545 226.376C129.613 226.277 129.702 226.193 129.805 226.132C129.908 226.07 130.023 226.031 130.143 226.018C130.475 225.966 130.637 226.109 130.67 226.233C130.91 226.78 130.02 228.134 129.48 228.557H129.428C129.404 228.568 129.377 228.572 129.35 228.57ZM129.747 226.526C129.495 227.05 129.413 227.639 129.513 228.212C130.026 227.698 130.611 226.656 130.468 226.337C130.468 226.305 130.416 226.207 130.202 226.259H130.13C130.049 226.273 129.971 226.303 129.902 226.348C129.833 226.393 129.773 226.451 129.727 226.52L129.747 226.526Z" fill="#407BFF"/>
<path d="M84.903 230.327L90.051 231.134L92.1375 219.236L86.983 218.422L84.903 230.327Z" fill="#FF887B"/>
<path d="M90.0965 230.529L84.461 229.65C84.3608 229.633 84.2579 229.652 84.17 229.703C84.0822 229.754 84.015 229.835 83.98 229.93L82.3615 234.356C82.3255 234.453 82.3093 234.557 82.3138 234.66C82.3183 234.763 82.3434 234.864 82.3877 234.958C82.4319 235.051 82.4943 235.135 82.5713 235.204C82.6483 235.273 82.7383 235.325 82.836 235.359C82.8818 235.378 82.9299 235.391 82.979 235.398C85.0135 235.678 87.958 236.016 90.5125 236.42C93.4895 236.889 93.7105 237.071 97.201 237.637C99.3135 237.969 100.178 235.912 99.32 235.58C95.42 234.064 94.471 233.816 91.2795 231.108C90.944 230.813 90.5355 230.613 90.0965 230.529Z" fill="#263238"/>
<path opacity="0.2" d="M92.1375 219.236L90.922 226.148L85.774 225.341L86.983 218.429L92.1375 219.236Z" fill="black"/>
<path d="M90.805 230.464C90.786 230.46 90.7686 230.45 90.7548 230.436C90.741 230.422 90.7313 230.405 90.727 230.386C90.722 230.371 90.72 230.355 90.7212 230.34C90.7225 230.324 90.7269 230.309 90.7342 230.295C90.7414 230.281 90.7515 230.268 90.7636 230.258C90.7758 230.248 90.7899 230.241 90.805 230.236C91.052 230.152 93.236 229.429 93.795 229.878C93.8491 229.918 93.8918 229.972 93.9192 230.033C93.9465 230.095 93.9575 230.163 93.951 230.23C93.9519 230.34 93.9249 230.448 93.8726 230.545C93.8204 230.642 93.7444 230.724 93.652 230.783C93.2449 230.971 92.7859 231.012 92.352 230.9C91.824 230.803 91.3062 230.657 90.805 230.464ZM91.2015 230.353C92.3 230.718 93.1515 230.803 93.4895 230.568C93.5504 230.529 93.6003 230.475 93.6345 230.412C93.6686 230.348 93.6858 230.276 93.6845 230.204C93.6871 230.178 93.6838 230.151 93.6748 230.126C93.6658 230.101 93.6513 230.079 93.6325 230.061C93.5638 230.022 93.4891 229.996 93.4115 229.982C92.6593 229.981 91.9122 230.107 91.2015 230.353Z" fill="#407BFF"/>
<path d="M90.7335 230.425C90.72 230.408 90.7102 230.388 90.7046 230.366C90.699 230.345 90.6978 230.323 90.701 230.301C90.701 230.249 91.0455 228.895 91.7475 228.466C91.8486 228.401 91.9622 228.358 92.0809 228.34C92.1996 228.322 92.3207 228.33 92.4365 228.362C92.768 228.446 92.8655 228.641 92.846 228.765C92.846 229.364 91.5135 230.275 90.857 230.458H90.805C90.7783 230.454 90.7534 230.443 90.7335 230.425ZM91.8775 228.681C91.4461 229.07 91.1463 229.584 91.0195 230.152C91.6695 229.872 92.6315 229.136 92.6185 228.785C92.6185 228.785 92.6185 228.641 92.404 228.609H92.326C92.1696 228.586 92.0101 228.62 91.8775 228.707V228.681Z" fill="#407BFF"/>
<path d="M110.279 154.873C114.341 155.094 118.079 155.355 122.154 155.218C122.557 150.466 121.94 143.742 120.276 139.277C116.915 137.48 112.983 138.626 109.382 139.895L110.279 154.873Z" fill="#407BFF"/>
<path opacity="0.2" d="M110.279 154.873C114.341 155.094 118.079 155.355 122.154 155.218C122.557 150.466 121.94 143.742 120.276 139.277C116.915 137.48 112.983 138.626 109.382 139.895L110.279 154.873Z" fill="black"/>
<path opacity="0.2" d="M109.382 139.96L110.747 140.553L112.651 153.61L122.226 154.189L122.154 155.283L110.279 154.938L109.382 139.96Z" fill="black"/>
<path opacity="0.2" d="M120.25 139.296L120.828 141.073L117.494 142.317L112.021 141.457L109.356 139.915C111.165 139.078 113.104 138.558 115.089 138.379C118.553 137.995 120.25 139.296 120.25 139.296Z" fill="white"/>
<path d="M116.291 117.719L123.727 180.513L129.246 220.108C129.333 220.587 129.23 221.081 128.959 221.486C128.689 221.89 128.272 222.173 127.796 222.275L121.66 223.844C121.206 223.877 120.755 223.74 120.395 223.46C120.035 223.18 119.791 222.777 119.71 222.328C117.76 214.146 112.521 198.178 111.533 182.498C111.533 182.498 101.133 142.499 98.995 130.125L98.345 118.942L116.291 117.719Z" fill="#0818C6"/>
<path opacity="0.2" d="M107.074 132.885C107.074 132.885 108.966 150.688 107.074 165.157C107.074 165.157 103.077 148.552 101.263 141.998L107.074 132.885Z" fill="black"/>
<path d="M108.55 114.666L102.284 185.512L94.328 223.33C94.2994 223.554 94.2251 223.769 94.1097 223.963C93.9944 224.156 93.8404 224.324 93.6574 224.455C93.4744 224.586 93.2664 224.679 93.0462 224.726C92.8261 224.773 92.5986 224.774 92.378 224.73L85.631 223.324C85.1858 223.191 84.8013 222.905 84.5447 222.518C84.2881 222.13 84.1756 221.664 84.227 221.202C84.877 213.033 84.487 199.721 88.465 185.284C88.465 185.284 88.9135 136.465 90.6165 114.796L108.55 114.666Z" fill="#0818C6"/>
<path d="M147.823 82.7578L149.181 80.8701L154.108 83.9034C153.108 84.7557 152.018 85.4977 150.858 86.1165C150.47 86.3146 150.033 86.3978 149.599 86.3563C149.165 86.3148 148.752 86.1503 148.408 85.8822L148.226 85.739C147.785 85.3919 147.497 84.8866 147.421 84.3301C147.346 83.7737 147.49 83.2097 147.823 82.7578Z" fill="#FF8B7B"/>
<path d="M153.166 78.0776L155.746 82.5429L154.115 83.9099L149.188 80.8701L153.166 78.0776Z" fill="#FF8B7B"/>
<path d="M113.971 88.0952C119.12 89.291 124.327 90.223 129.571 90.8876C132.171 91.2261 143.26 88.6745 148.037 87.8413C148.2 87.8498 148.362 87.8161 148.507 87.7434C148.653 87.6708 148.777 87.5617 148.868 87.4267C148.959 87.2917 149.013 87.1355 149.026 86.9732C149.039 86.8109 149.01 86.648 148.941 86.5004L148.356 82.3281C148.345 81.924 148.201 81.5349 147.946 81.2215C147.708 81.0546 147.434 80.9454 147.147 80.9025C146.859 80.8595 146.566 80.8841 146.289 80.9741C139.964 82.0156 130.929 82.6665 130.929 82.6665C126.457 82.0156 121.667 80.1605 117.578 78.3119C105.378 72.8181 111.26 87.3922 113.971 88.0952Z" fill="#263238"/>
<path opacity="0.1" d="M113.971 88.0952C119.12 89.291 124.327 90.223 129.571 90.8876C132.171 91.2261 143.26 88.6745 148.037 87.8413C148.2 87.8498 148.362 87.8161 148.507 87.7434C148.653 87.6708 148.777 87.5617 148.868 87.4267C148.959 87.2917 149.013 87.1355 149.026 86.9732C149.039 86.8109 149.01 86.648 148.941 86.5004L148.356 82.3281C148.345 81.924 148.201 81.5349 147.946 81.2215C147.708 81.0546 147.434 80.9454 147.147 80.9025C146.859 80.8595 146.566 80.8841 146.289 80.9741C139.964 82.0156 130.929 82.6665 130.929 82.6665C126.457 82.0156 121.667 80.1605 117.578 78.3119C105.378 72.8181 111.26 87.3922 113.971 88.0952Z" fill="black"/>
<path d="M157.423 86.4093L151.82 85.2963L155.252 73.5146L160.849 74.6277L157.423 86.4093Z" fill="#407BFF"/>
<path d="M161.999 74.2046L158.164 87.3857C158.118 87.54 158.015 87.6713 157.877 87.7543C157.739 87.8373 157.575 87.866 157.417 87.8348L157.092 87.7697C157.249 87.7991 157.411 87.7696 157.548 87.6868C157.685 87.6039 157.786 87.4736 157.833 87.3206L161.668 74.133C161.692 74.047 161.698 73.957 161.686 73.8685C161.674 73.78 161.644 73.6949 161.598 73.6186C161.551 73.5423 161.49 73.4763 161.417 73.4248C161.344 73.3733 161.261 73.3374 161.174 73.3193L161.499 73.3844C161.588 73.4017 161.672 73.4372 161.746 73.4888C161.82 73.5403 161.883 73.6068 161.93 73.684C161.977 73.7612 162.007 73.8473 162.019 73.9369C162.031 74.0266 162.025 74.1177 161.999 74.2046Z" fill="#407BFF"/>
<path opacity="0.3" d="M161.999 74.2046L158.164 87.3857C158.118 87.54 158.015 87.6713 157.877 87.7543C157.739 87.8373 157.575 87.866 157.417 87.8348L157.092 87.7697C157.249 87.7991 157.411 87.7696 157.548 87.6868C157.685 87.6039 157.786 87.4736 157.833 87.3206L161.668 74.133C161.692 74.047 161.698 73.957 161.686 73.8685C161.674 73.78 161.644 73.6949 161.598 73.6186C161.551 73.5423 161.49 73.4763 161.417 73.4248C161.344 73.3733 161.261 73.3374 161.174 73.3193L161.499 73.3844C161.588 73.4017 161.672 73.4372 161.746 73.4888C161.82 73.5403 161.883 73.6068 161.93 73.684C161.977 73.7612 162.007 73.8473 162.019 73.9369C162.031 74.0266 162.025 74.1177 161.999 74.2046Z" fill="black"/>
<path d="M161.2 73.2934L155.616 72.1868C155.458 72.1557 155.295 72.1843 155.156 72.2673C155.018 72.3503 154.916 72.4817 154.869 72.636L151.034 85.8171C151.01 85.9031 151.004 85.9931 151.016 86.0816C151.028 86.1701 151.058 86.2551 151.104 86.3315C151.151 86.4078 151.212 86.4737 151.285 86.5252C151.358 86.5767 151.441 86.6126 151.528 86.6307L157.118 87.7438C157.275 87.7732 157.437 87.7437 157.574 87.6608C157.711 87.578 157.812 87.4476 157.859 87.2947L161.694 74.1071C161.718 74.0211 161.724 73.931 161.712 73.8425C161.7 73.754 161.67 73.669 161.624 73.5927C161.577 73.5163 161.516 73.4504 161.443 73.3989C161.37 73.3474 161.287 73.3115 161.2 73.2934ZM157.449 86.4094L151.827 85.2703L155.252 73.4887L160.849 74.6018L157.449 86.4094Z" fill="#407BFF"/>
<path d="M160.849 74.6277L157.423 86.4093L151.82 85.2963L155.252 73.5146L160.849 74.6277Z" fill="#407BFF"/>
<path opacity="0.7" d="M160.849 74.6277L157.423 86.4093L151.82 85.2963L155.252 73.5146L160.849 74.6277Z" fill="white"/>
<path d="M151.645 79.1451L152.906 77.8107C152.933 77.7801 152.969 77.7573 153.008 77.7446C153.047 77.7319 153.088 77.7297 153.129 77.7383C153.169 77.7469 153.206 77.7659 153.237 77.7935C153.267 77.821 153.29 77.8561 153.302 77.8953L153.478 78.403C153.53 78.5612 153.547 78.7291 153.527 78.8946C153.507 79.0601 153.45 79.219 153.361 79.3599L151.45 82.3736L149.194 80.87L151.645 79.1451Z" fill="#FF8B7B"/>
<path d="M117.234 95.3724C117.331 112.511 118.352 118.949 115.81 118.942C111.085 118.942 93.821 119.593 92.8135 119.424C85.358 118.363 89.934 101.367 89.83 98.7051C89.765 97.0648 89.6285 95.4505 89.414 93.8167C89.2897 92.8412 89.072 91.88 88.764 90.9462C88.218 89.3775 87.334 88.0171 85.813 87.5158C84.448 87.0602 82.953 87.4573 81.5165 87.3596C80.08 87.262 78.4485 86.2661 78.624 84.8406C78.7762 84.1716 79.1356 83.5678 79.651 83.1156C81.744 80.883 84.097 78.6699 84.9225 75.7277C85.2735 74.4975 85.345 73.124 86.0405 72.0565C88.9135 67.6368 95.7905 71.9459 99.19 73.2087C101.38 74.0158 103.363 75.22 105.54 76.0336C107.822 76.8929 111.832 77.0946 114.757 77.2118C117.396 77.316 117.234 95.3724 117.234 95.3724Z" fill="#263238"/>
<path d="M97.8445 67.1617C98.566 70.0518 98.4035 74.758 98.423 78.0126C98.423 81.0328 106.223 83.5454 106.223 83.5454C106.223 83.5454 109.44 80.8245 106.951 78.7937C104.864 77.0883 104.572 75.103 105.001 72.7141L97.8445 67.1617Z" fill="#FF8B7B"/>
<path opacity="0.2" d="M100.789 69.4398L105.046 72.6944C104.912 73.3574 104.83 74.0299 104.799 74.7058C103.252 74.5626 101.049 72.9808 100.796 71.3796C100.676 70.7387 100.674 70.0815 100.789 69.4398Z" fill="black"/>
<path d="M97.136 61.7395C97.6885 66.6279 97.786 69.5115 100.386 71.9069C104.286 75.5 110.233 72.9418 111.15 68.0014C111.975 63.5426 110.929 56.2848 106.034 54.5925C104.957 54.212 103.801 54.1136 102.675 54.3064C101.55 54.4993 100.492 54.977 99.6022 55.6944C98.7127 56.4117 98.021 57.3448 97.5928 58.4051C97.1645 59.4654 97.014 60.6177 97.1555 61.7526L97.136 61.7395Z" fill="#FF8B7B"/>
<path d="M111.384 66.5303C111.644 68.4375 111.962 71.8092 112.528 73.6904C109.193 73.6904 106.028 73.8661 102.674 73.8531C102.212 73.5016 98.124 69.9476 98.423 69.6156C99.554 68.4505 100.938 67.1356 99.6255 65.8208C99.2225 65.4172 99.437 64.6947 99.3785 64.1349C100.587 65.9575 105.228 67.2723 107.347 66.8818L111.384 66.5303Z" fill="#263238"/>
<path d="M106.158 67.5261C105.449 67.78 106.476 68.828 107.601 68.8866H109.609C109.851 68.896 110.09 68.8406 110.303 68.7262C110.515 68.6117 110.693 68.4423 110.818 68.2356C111.026 67.8516 111.02 67.4415 110.701 67.3243C110.215 67.1794 109.705 67.1329 109.2 67.1877C108.177 67.1906 107.157 67.3041 106.158 67.5261Z" fill="#FF8B7B"/>
<path d="M109.85 67.9623C109.3 68.1295 108.718 68.1624 108.152 68.0583C107.587 67.9541 107.055 67.7158 106.6 67.3635C106.588 67.352 106.579 67.3383 106.573 67.3232C106.567 67.3081 106.563 67.2919 106.563 67.2756C106.563 67.2593 106.567 67.2431 106.573 67.228C106.579 67.2129 106.588 67.1992 106.6 67.1877C106.621 67.1737 106.646 67.1663 106.671 67.1663C106.697 67.1663 106.722 67.1737 106.743 67.1877C107.173 67.5139 107.674 67.7339 108.204 67.8301C108.735 67.9262 109.281 67.8957 109.798 67.741C109.814 67.7361 109.831 67.7346 109.848 67.7366C109.865 67.7386 109.881 67.7441 109.896 67.7526C109.91 67.7612 109.923 67.7726 109.933 67.7863C109.943 67.8 109.95 67.8156 109.954 67.8321C109.96 67.8631 109.954 67.8952 109.937 67.9218C109.92 67.9485 109.894 67.9676 109.863 67.9753L109.85 67.9623Z" fill="#263238"/>
<path d="M108.992 65.1829C107.934 65.1446 106.884 65.3871 105.95 65.8859C105.01 66.3788 103.941 66.5719 102.888 66.4392C103.779 67.1069 104.831 67.5248 105.937 67.6499C107.073 67.7902 108.224 67.5814 109.239 67.051C109.83 67.413 110.496 67.6336 111.186 67.6957C111.876 67.7578 112.571 67.6597 113.217 67.409C111.975 67.7084 111.481 66.0161 110.201 65.4237C109.809 65.2974 109.403 65.2166 108.992 65.1829Z" fill="#263238"/>
<path opacity="0.1" d="M108.992 65.1829C107.934 65.1446 106.884 65.3871 105.95 65.8859C105.01 66.3788 103.941 66.5719 102.888 66.4392C103.779 67.1069 104.831 67.5248 105.937 67.6499C107.073 67.7902 108.224 67.5814 109.239 67.051C109.83 67.413 110.496 67.6336 111.186 67.6957C111.876 67.7578 112.571 67.6597 113.217 67.409C111.975 67.7084 111.481 66.0161 110.201 65.4237C109.809 65.2974 109.403 65.2166 108.992 65.1829Z" fill="black"/>
<path d="M101.328 60.6005C101.647 61.1465 101.805 61.7715 101.783 62.4035C101.266 62.9129 100.812 63.4834 100.431 64.1024C99.879 65.0137 99.7035 66.1528 98.995 66.9534C98.995 66.9534 98.839 67.0511 98.865 67.038C98.2936 65.9806 97.7773 64.8943 97.318 63.7835C98.448 62.4845 99.8076 61.4055 101.328 60.6005Z" fill="#263238"/>
<path d="M95.3159 66.5108C95.8582 67.625 96.8186 68.4791 97.9874 68.8867C99.5344 69.4139 100.405 68.047 100.041 66.5173C99.7229 65.1634 98.5269 63.2627 96.9344 63.3734C96.5854 63.4074 96.2505 63.5284 95.9602 63.7254C95.6699 63.9224 95.4335 64.189 95.2725 64.501C95.1116 64.813 95.0312 65.1604 95.0388 65.5114C95.0464 65.8625 95.1417 66.2061 95.3159 66.5108Z" fill="#FF8B7B"/>
<path d="M105.449 62.7354C105.449 63.1325 105.696 63.4449 105.963 63.4319C106.229 63.4189 106.418 63.0869 106.392 62.6898C106.366 62.2928 106.145 61.9738 105.885 61.9868C105.625 61.9999 105.43 62.3318 105.449 62.7354Z" fill="#263238"/>
<path d="M109.616 62.4882C109.616 62.8918 109.863 63.2042 110.123 63.1847C110.383 63.1651 110.578 62.8397 110.558 62.4361C110.539 62.0325 110.311 61.7331 110.045 61.7461C109.778 61.7592 109.596 62.1041 109.616 62.4882Z" fill="#263238"/>
<path d="M108.303 62.2538C109.05 63.3343 109.915 63.8355 110.903 64.6687C110.37 65.4758 109.057 65.3782 109.057 65.3782L108.303 62.2538Z" fill="#FF5652"/>
<path d="M104 61.349C104.043 61.3562 104.087 61.3501 104.127 61.3315C104.166 61.3129 104.199 61.2827 104.221 61.2449C104.382 60.9979 104.597 60.7917 104.851 60.6426C105.105 60.4935 105.39 60.4055 105.683 60.3857C105.745 60.3857 105.804 60.3622 105.849 60.3198C105.894 60.2774 105.921 60.2194 105.924 60.1578C105.926 60.1268 105.921 60.0958 105.911 60.0666C105.9 60.0375 105.883 60.0108 105.862 59.9883C105.841 59.9657 105.815 59.9477 105.787 59.9355C105.758 59.9232 105.727 59.9169 105.696 59.917C105.324 59.9333 104.961 60.0387 104.637 60.2244C104.314 60.4101 104.04 60.6708 103.837 60.9845C103.804 61.036 103.791 61.0984 103.802 61.1589C103.813 61.2194 103.847 61.2734 103.896 61.31C103.928 61.3297 103.963 61.3429 104 61.349Z" fill="#263238"/>
<path d="M110.994 61.1212C111.039 61.1344 111.086 61.1344 111.13 61.1212C111.159 61.1075 111.184 61.0881 111.204 61.0644C111.224 61.0406 111.239 61.0129 111.249 60.9829C111.258 60.953 111.261 60.9215 111.257 60.8904C111.254 60.8593 111.244 60.8293 111.228 60.8022C111.054 60.4677 110.802 60.1803 110.493 59.9649C110.184 59.7495 109.827 59.6124 109.453 59.5655C109.391 59.5619 109.329 59.583 109.282 59.6244C109.234 59.6657 109.205 59.724 109.2 59.7868C109.196 59.8479 109.217 59.908 109.257 59.9542C109.297 60.0005 109.354 60.0291 109.414 60.0341C109.705 60.0805 109.981 60.1948 110.219 60.3678C110.457 60.5409 110.652 60.7677 110.786 61.03C110.812 61.0596 110.844 61.0831 110.88 61.0989C110.916 61.1146 110.955 61.1222 110.994 61.1212Z" fill="#263238"/>
<path opacity="0.4" d="M93.3595 83.5714C93.3595 83.5714 93.6195 92.3718 91.8775 96.4466C91.1885 98.0739 90.519 98.9005 89.96 99.2976C89.7065 97.6703 89.3685 96.043 88.9655 94.4873C88.73 93.5351 88.4012 92.6085 87.984 91.7209L87.828 89.6835L93.3595 83.5714Z" fill="black"/>
<path opacity="0.2" d="M94.9 120.374C94.8415 120.654 94.6725 122.106 94.4515 123.076C93.93 124.936 92.7491 126.542 91.13 127.593C89.83 128.283 90.584 122.223 90.584 122.223L90.831 120.133L94.9 120.374Z" fill="black"/>
<path d="M89.5635 120.374L94.562 122.652C94.2173 124.533 93.1451 126.201 91.5785 127.294L91.1495 127.593C91.1495 127.593 86.294 122.958 86.9505 121.565L89.5635 120.374Z" fill="#FF8B7B"/>
<path d="M79.625 105.273C79.625 112.472 82.069 115.141 84.175 121.325C84.3825 121.937 84.8102 122.451 85.375 122.765C85.9397 123.079 86.601 123.171 87.23 123.024C89.6155 122.49 91.9555 120.732 90.48 117.634C90.48 117.634 89.037 113.611 88.0685 105.67C87.8743 104.594 87.8743 103.492 88.0685 102.415C88.79 99.3431 91.6825 93.244 92.352 89.1563C92.9175 85.6608 93.652 81.2932 91.9945 79.8416C84.292 73.033 79.625 91.48 79.625 105.273Z" fill="#263238"/>
<path opacity="0.4" d="M88.491 76.5284C88.5411 76.7652 88.6438 76.9877 88.7914 77.1794C88.939 77.3711 89.1278 77.5271 89.3437 77.6359C89.5597 77.7447 89.7973 77.8034 90.039 77.8077C90.2807 77.8121 90.5203 77.7619 90.74 77.661C92.313 76.8929 96.6875 78.3575 98.4165 77.9865C98.4165 77.9865 98.4165 75.6367 98.4165 74.9857C98.4165 74.3348 92.5665 72.0892 90.844 71.946C87.919 71.7181 87.958 74.2046 88.491 76.5284Z" fill="black"/>
<path d="M110.35 59.0382C108.498 57.9968 106.216 58.3873 104.383 59.3246C102.794 60.2684 101.347 61.4345 100.087 62.7875C98.7089 64.1284 97.3829 65.3912 96.0244 66.693C95.9364 66.7797 95.8289 66.844 95.711 66.8806C95.5931 66.9171 95.4682 66.9249 95.3467 66.9032C95.2251 66.8816 95.1105 66.8311 95.0125 66.756C94.9144 66.681 94.8357 66.5835 94.7829 66.4717C94.6269 66.1398 94.4774 65.8208 94.2889 65.4758C94.2297 65.3795 94.1916 65.2716 94.177 65.1594C94.1625 65.0472 94.1718 64.9332 94.2044 64.8249C94.3604 64.3302 94.5294 63.8355 94.6724 63.3473C94.1082 61.5951 93.9773 59.7319 94.291 57.9178C94.6046 56.1037 95.3534 54.393 96.4729 52.9326C97.9874 50.9799 100.906 50.9799 103.304 51.4811C104.505 51.7547 105.638 52.2667 106.637 52.9867C107.637 53.7067 108.481 54.6202 109.122 55.673C109.376 55.6081 109.642 55.6074 109.896 55.671C110.15 55.7347 110.384 55.8606 110.578 56.0375C110.999 56.3548 111.314 56.793 111.481 57.2938C111.591 57.5258 111.648 57.7792 111.648 58.0358C111.648 58.2924 111.591 58.5458 111.481 58.7779C111.362 58.9577 111.178 59.0848 110.968 59.1332C110.757 59.1816 110.537 59.1477 110.35 59.0382Z" fill="#0818C6"/>
<path d="M106.847 54.8789C107.185 55.2564 107.442 55.6995 107.601 56.1807C106.663 56.1941 105.737 56.3955 104.877 56.7731C104.703 56.2987 104.448 55.8582 104.123 55.4712C105.066 55.2499 105.911 55.0937 106.847 54.8789Z" fill="white"/>
<path d="M95.3355 154.873C91.273 155.094 87.5355 155.355 83.46 155.218C83.057 150.466 83.6745 143.742 85.3385 139.277C88.699 137.48 92.6315 138.626 96.2325 139.895L95.3355 154.873Z" fill="#407BFF"/>
<path opacity="0.2" d="M96.2325 139.96L94.8675 140.553L92.963 153.61L83.3885 154.189L83.46 155.283L95.3355 154.938L96.2325 139.96Z" fill="black"/>
<path opacity="0.2" d="M85.3384 139.296L84.7599 141.073L88.0945 142.317L93.5675 141.457L96.2325 139.915C94.4234 139.078 92.4842 138.558 90.4995 138.379C87.061 137.995 85.3384 139.296 85.3384 139.296Z" fill="white"/>
</svg>
